<?xml version="1.0" encoding="UTF-8" ?>
<!DOCTYPE svg PUBLIC "-//W3C//DTD SVG 1.1//EN" "http://www.w3.org/Graphics/SVG/1.1/DTD/svg11.dtd">
<svg width="1920pt" height="1360pt" viewBox="0 0 1920 1360" version="1.1" xmlns="http://www.w3.org/2000/svg">
<g id="#01befeff">
<path fill="#01befe" stroke="#01befe" stroke-width="0.09375" opacity="1.00" d=" M 0.00 0.00 L 1098.45 0.00 C 1096.68 4.15 1094.20 7.91 1091.87 11.74 C 1084.50 25.14 1078.78 39.78 1077.51 55.12 C 1077.25 62.42 1075.81 69.74 1077.00 77.03 C 1078.51 96.54 1085.74 115.36 1096.42 131.65 C 1099.51 136.59 1103.31 141.07 1106.18 146.16 C 1105.51 146.97 1104.67 147.50 1103.68 147.74 C 1076.75 151.14 1049.64 158.05 1026.39 172.53 C 1016.13 178.85 1006.12 186.08 998.72 195.72 C 994.17 201.06 990.66 207.16 987.48 213.38 C 984.10 220.86 983.30 229.17 982.64 237.26 C 982.87 250.16 986.82 263.11 994.49 273.57 C 1001.78 284.55 1012.74 292.19 1023.40 299.61 C 1034.90 307.31 1047.68 312.99 1060.87 317.14 C 1077.01 322.70 1093.99 325.43 1110.96 326.92 C 1132.57 328.97 1154.37 326.86 1175.59 322.59 C 1203.67 316.29 1231.45 304.65 1252.24 284.24 C 1256.68 278.96 1261.59 273.92 1264.71 267.69 C 1267.91 261.45 1270.99 255.01 1272.09 248.01 C 1273.27 242.46 1272.80 236.76 1273.23 231.13 C 1280.74 230.28 1288.12 232.84 1295.58 233.45 C 1307.71 234.50 1319.80 236.17 1332.00 236.17 C 1346.02 236.20 1360.05 236.50 1374.06 235.88 C 1384.05 235.12 1394.02 234.00 1404.00 233.02 C 1449.24 226.78 1494.02 213.71 1533.66 190.66 C 1548.01 182.12 1561.69 172.32 1573.80 160.79 C 1579.32 154.98 1585.45 149.72 1590.25 143.26 C 1603.18 127.18 1613.11 108.31 1616.95 87.92 C 1621.09 68.17 1618.45 47.38 1611.36 28.62 C 1607.68 18.48 1601.80 9.40 1596.64 0.00 L 1692.11 0.00 C 1692.27 7.20 1691.54 14.56 1693.54 21.58 C 1699.36 41.71 1704.13 62.16 1707.35 82.87 C 1709.16 94.26 1711.08 105.65 1711.82 117.16 C 1712.17 123.13 1713.42 129.02 1713.50 135.00 C 1713.49 149.33 1713.76 163.67 1713.40 178.00 C 1712.15 202.31 1708.75 226.52 1703.24 250.24 C 1694.00 288.33 1678.79 324.94 1658.49 358.45 C 1639.48 389.48 1616.75 418.27 1590.51 443.52 C 1578.00 456.40 1564.52 468.31 1550.58 479.61 C 1537.41 489.84 1524.30 500.18 1510.41 509.44 C 1479.31 530.65 1446.47 549.24 1412.55 565.54 C 1354.12 593.53 1292.68 614.90 1229.99 631.07 C 1221.73 633.31 1213.46 635.53 1205.06 637.14 C 1168.37 645.61 1131.30 652.67 1093.88 656.95 C 1099.96 646.61 1106.15 636.32 1111.75 625.71 C 1119.05 611.60 1126.10 597.37 1133.16 583.14 C 1141.96 565.82 1151.97 549.09 1163.45 533.41 C 1169.13 526.53 1174.57 519.30 1181.59 513.70 C 1197.10 504.07 1213.61 496.23 1229.88 488.00 C 1239.62 483.98 1248.73 478.64 1258.31 474.27 C 1265.56 470.52 1272.84 466.81 1279.99 462.90 C 1283.31 461.24 1282.78 457.14 1282.64 454.06 C 1282.66 451.42 1280.33 449.42 1277.97 448.75 C 1267.16 447.01 1256.67 450.96 1246.04 452.15 C 1241.65 452.56 1236.75 452.63 1232.96 450.05 C 1230.09 446.58 1229.76 441.16 1232.58 437.55 C 1236.13 433.18 1241.32 430.66 1246.28 428.24 C 1255.31 423.75 1265.23 421.17 1273.85 415.85 C 1278.64 412.83 1283.25 408.82 1285.00 403.23 C 1286.07 399.56 1286.90 395.36 1285.21 391.75 C 1283.47 389.06 1279.97 388.24 1276.97 388.61 C 1270.80 389.47 1264.95 392.22 1260.21 396.22 C 1250.47 404.11 1243.16 414.67 1232.75 421.77 C 1229.90 423.72 1226.91 426.42 1223.19 425.80 C 1221.85 423.47 1222.91 420.80 1223.52 418.44 C 1228.12 403.11 1235.90 388.78 1239.01 373.00 C 1240.16 367.70 1239.44 360.41 1233.83 357.94 C 1226.01 355.93 1216.19 358.71 1212.56 366.43 C 1205.37 381.80 1200.00 397.94 1193.57 413.62 C 1192.84 414.98 1192.09 417.05 1190.19 416.86 C 1189.07 410.52 1190.93 404.19 1191.55 397.90 C 1192.88 386.90 1191.93 375.22 1186.80 365.24 C 1185.31 362.12 1181.73 359.23 1178.19 361.02 C 1171.89 364.01 1168.36 371.05 1167.59 377.73 C 1165.38 393.72 1165.92 409.91 1165.51 426.01 C 1165.32 429.35 1166.01 432.86 1164.75 436.06 C 1162.86 440.53 1163.26 446.02 1159.77 449.76 C 1157.00 452.94 1151.97 452.11 1148.69 450.24 C 1142.01 446.88 1138.42 439.71 1131.82 436.24 C 1126.96 433.24 1121.13 429.75 1115.29 432.01 C 1112.52 435.05 1113.60 439.93 1114.23 443.68 C 1116.11 453.57 1124.32 460.17 1131.01 466.98 C 1135.10 471.48 1140.08 475.31 1143.29 480.54 C 1145.37 486.49 1145.11 493.43 1142.16 499.07 C 1138.29 506.68 1133.63 513.84 1129.17 521.11 C 1121.85 533.93 1114.25 546.61 1105.97 558.84 C 1103.34 563.77 1100.13 568.33 1097.13 573.02 C 1093.28 580.32 1088.22 586.86 1083.86 593.84 C 1078.08 601.70 1073.61 610.65 1066.02 617.02 C 1056.88 626.07 1043.53 629.20 1031.01 628.52 C 1015.78 628.82 1001.22 623.78 987.01 618.96 C 980.29 616.78 973.91 613.69 967.12 611.74 C 964.45 610.94 961.89 609.81 959.44 608.52 C 960.19 597.03 962.61 584.18 956.20 573.80 C 952.75 567.86 945.80 565.94 939.67 564.09 C 924.31 558.93 908.18 556.69 892.61 552.33 C 886.92 550.92 881.48 548.75 875.91 547.00 C 860.54 537.42 845.30 527.62 829.82 518.21 C 823.81 514.90 818.21 510.84 811.88 508.16 C 803.40 504.45 795.23 499.80 786.17 497.59 C 779.34 494.23 771.63 493.51 764.39 491.38 C 754.48 488.12 743.86 489.88 733.71 488.01 C 734.39 479.30 733.78 470.50 735.36 461.89 C 735.98 457.36 735.84 452.78 736.30 448.25 L 736.45 447.56 C 741.80 438.37 752.59 435.19 762.21 432.63 C 768.96 431.50 775.62 429.61 782.51 429.51 C 781.33 429.12 780.17 428.69 779.02 428.30 C 787.55 428.85 795.72 425.82 803.98 424.18 C 808.44 423.37 812.36 420.94 816.69 419.73 C 825.38 417.03 831.47 409.86 837.43 403.41 C 840.72 399.88 842.94 395.56 845.72 391.65 C 851.31 384.49 854.32 375.76 857.39 367.32 C 859.92 361.64 861.45 355.58 863.27 349.66 C 864.29 341.95 867.04 334.38 866.26 326.52 C 866.72 326.86 867.20 327.20 867.68 327.54 C 868.36 318.04 868.27 308.49 869.48 299.03 C 869.67 289.70 869.47 280.35 869.60 271.01 C 869.70 267.26 869.19 263.54 868.74 259.83 C 868.17 251.55 868.91 243.19 867.86 234.95 C 865.86 226.57 866.60 217.91 865.68 209.40 C 865.18 209.77 864.69 210.14 864.22 210.52 C 864.60 206.78 864.52 203.01 864.20 199.26 C 864.59 193.35 863.72 187.47 862.24 181.76 C 858.43 166.58 854.14 151.31 846.37 137.61 C 844.88 135.37 843.69 132.95 842.88 130.39 C 843.60 130.20 845.05 129.84 845.77 129.66 C 846.50 128.22 846.48 126.56 846.42 125.00 C 845.36 111.83 839.78 98.94 830.51 89.48 C 820.04 78.57 805.74 72.12 791.24 68.54 C 767.01 62.36 741.60 62.86 716.96 66.08 C 695.48 69.39 673.95 74.61 654.49 84.52 C 638.46 93.63 623.07 104.02 609.17 116.16 C 596.04 127.90 583.78 141.22 576.44 157.42 C 571.44 168.79 569.02 181.76 572.03 194.00 C 574.27 203.00 578.42 211.52 584.23 218.77 C 593.38 230.01 598.56 243.70 605.96 256.03 C 608.97 261.17 613.01 265.60 617.02 269.98 C 607.93 267.27 598.36 266.82 588.96 267.76 C 583.42 268.79 578.06 271.31 573.93 275.19 C 572.70 275.50 571.47 275.83 570.21 275.90 C 563.08 268.68 556.24 261.13 548.65 254.36 C 528.86 238.07 506.53 224.96 482.87 215.14 C 476.38 212.17 469.51 210.12 463.08 207.02 C 438.75 198.05 413.11 193.50 387.55 189.69 C 378.37 189.06 369.22 188.04 360.05 187.35 C 346.03 187.33 332.00 187.12 317.98 187.41 C 316.24 187.16 313.75 187.78 312.66 186.05 C 314.63 180.62 317.52 175.51 318.69 169.79 C 320.43 164.00 319.06 157.91 320.04 152.04 C 326.11 151.03 332.30 152.23 338.39 151.27 C 347.16 149.97 356.34 148.75 364.03 144.01 C 369.25 140.78 374.77 137.47 378.08 132.11 C 383.91 123.67 382.94 111.48 376.14 103.86 C 367.14 93.89 353.72 89.37 340.75 87.56 C 328.70 86.77 316.30 86.99 304.76 90.95 C 299.91 92.78 295.32 95.25 290.91 97.97 C 287.35 100.09 285.23 103.81 281.97 106.29 C 278.05 105.16 274.67 102.78 270.92 101.23 C 265.59 99.05 260.19 96.95 254.58 95.58 C 240.67 92.05 226.44 88.77 212.00 89.32 C 202.38 89.57 192.65 88.57 183.14 90.42 C 174.87 92.03 166.37 92.63 158.38 95.47 C 151.07 97.40 143.99 100.04 137.17 103.32 C 128.08 106.78 120.52 113.08 112.94 118.99 C 103.96 126.94 96.65 137.46 94.38 149.40 C 91.56 161.73 93.95 175.30 101.36 185.63 C 106.66 194.75 114.99 201.50 123.46 207.53 C 134.55 214.62 146.64 220.21 159.37 223.63 C 161.42 224.17 163.42 224.94 165.28 225.97 C 164.22 227.02 163.09 228.01 161.83 228.82 C 144.54 238.48 127.85 249.72 114.22 264.22 C 95.78 281.33 82.21 303.85 76.51 328.39 C 70.84 353.58 75.46 380.57 87.98 403.01 C 94.08 414.11 101.61 424.46 110.70 433.30 C 124.22 447.77 140.20 459.79 157.32 469.67 C 168.75 475.80 180.09 482.22 192.29 486.73 C 213.77 496.05 236.56 501.87 259.43 506.64 C 276.27 508.79 293.05 511.73 310.05 512.36 C 316.05 512.47 321.98 513.64 328.00 513.36 C 338.82 513.11 349.67 513.86 360.45 512.71 C 375.09 511.30 389.85 510.64 404.27 507.58 C 425.44 504.11 446.34 498.82 466.55 491.62 C 474.64 489.52 482.41 486.44 489.96 482.90 C 494.76 480.56 499.94 479.10 504.61 476.49 C 513.82 471.10 523.54 466.52 532.06 460.01 C 539.53 454.22 547.93 449.40 553.99 442.00 C 560.77 434.79 568.25 428.15 573.93 419.96 C 582.24 406.84 590.28 393.22 594.19 378.05 C 596.44 368.76 599.20 359.29 597.92 349.65 C 598.29 344.89 597.89 340.16 597.28 335.44 C 597.97 335.29 599.35 334.99 600.04 334.84 C 611.14 337.82 622.68 340.95 631.90 348.15 C 637.78 352.88 641.37 359.88 642.84 367.20 C 648.17 392.50 656.48 417.20 659.47 442.96 C 659.69 452.21 659.92 461.48 659.34 470.72 C 658.47 476.11 658.53 481.58 658.05 487.01 C 658.09 484.61 657.95 482.20 657.34 479.88 C 657.19 482.18 657.45 484.53 656.89 486.80 C 643.59 487.35 630.71 491.09 618.14 495.22 C 616.01 495.95 614.00 496.96 612.07 498.08 C 605.32 500.66 598.29 503.09 592.53 507.58 C 581.34 507.64 570.15 507.34 559.00 508.29 C 555.24 507.88 551.72 508.94 548.15 509.87 C 540.80 509.99 533.77 512.28 526.56 513.40 C 522.40 515.42 517.85 516.69 513.18 516.30 C 514.07 516.75 514.96 517.19 515.86 517.66 C 512.96 517.91 510.07 518.17 507.18 518.33 C 508.06 518.78 508.96 519.23 509.86 519.69 C 507.42 519.85 505.00 520.01 502.58 520.23 C 502.84 520.71 503.11 521.20 503.39 521.70 C 497.23 521.88 491.92 525.19 486.45 527.62 C 480.99 530.83 474.93 532.96 469.71 536.61 C 465.66 539.50 460.97 541.30 456.86 544.10 C 449.78 548.90 442.88 553.96 436.15 559.24 C 410.92 580.48 389.92 606.86 375.66 636.65 C 369.71 648.70 365.46 661.47 361.49 674.28 C 359.58 680.43 358.89 686.89 356.95 693.04 C 354.54 700.78 353.54 708.94 353.18 717.02 C 351.45 731.77 352.66 746.64 353.82 761.38 C 355.59 771.69 356.70 782.18 359.91 792.18 C 364.88 811.26 372.45 829.66 382.20 846.79 C 384.55 850.94 387.06 855.01 389.40 859.18 C 380.37 872.45 373.10 886.88 368.02 902.10 C 365.51 908.10 365.47 914.63 365.07 921.01 C 364.17 927.60 365.98 934.11 366.39 940.67 C 325.27 974.27 281.86 1005.20 235.93 1031.89 C 188.54 1059.11 138.08 1081.52 85.04 1095.11 C 72.74 1098.41 60.26 1100.96 47.77 1103.42 C 31.84 1105.19 15.97 1107.55 0.00 1108.90 L 0.00 0.00 M 948.34 84.18 C 936.57 85.69 924.67 89.71 915.67 97.68 C 910.32 102.49 906.58 109.52 906.96 116.83 C 908.34 125.54 914.54 132.88 922.24 136.89 C 931.03 142.83 941.64 144.90 951.98 146.25 C 965.85 146.95 980.18 144.35 992.29 137.35 C 996.67 134.51 1001.42 131.58 1003.84 126.74 C 1006.25 121.99 1009.63 116.87 1007.81 111.31 C 1004.71 102.02 997.49 94.23 988.47 90.37 C 975.89 85.09 961.95 82.32 948.34 84.18 M 1644.84 186.85 C 1619.22 241.13 1589.33 294.17 1548.91 338.92 C 1522.85 367.88 1492.68 393.16 1459.41 413.45 C 1426.19 434.25 1390.39 450.61 1353.98 464.96 C 1335.21 472.38 1316.05 478.74 1297.09 485.59 C 1319.36 490.46 1342.26 491.08 1364.98 490.44 C 1424.47 487.45 1481.96 463.38 1528.01 425.99 C 1543.46 413.95 1557.14 399.80 1570.42 385.43 C 1579.32 374.28 1588.58 363.36 1596.29 351.31 C 1601.14 343.70 1606.55 336.41 1610.46 328.24 C 1622.69 307.54 1632.02 285.23 1639.48 262.41 C 1645.78 242.49 1650.63 222.06 1652.65 201.24 C 1654.28 189.57 1654.99 177.80 1654.74 166.02 C 1650.96 172.72 1648.27 179.97 1644.84 186.85 M 1343.38 288.43 C 1334.06 289.94 1325.01 293.65 1317.79 299.79 C 1313.95 303.91 1310.93 309.70 1312.36 315.47 C 1313.49 322.47 1319.13 327.54 1324.71 331.34 C 1332.78 335.58 1341.75 338.79 1351.00 338.36 C 1362.91 339.11 1374.98 335.51 1384.79 328.79 C 1390.62 324.17 1395.05 316.25 1392.49 308.73 C 1389.87 301.19 1382.82 296.43 1376.06 292.89 C 1365.67 289.02 1354.47 286.69 1343.38 288.43 M 1332.87 491.41 C 1337.44 492.72 1342.29 492.14 1347.00 492.34 C 1353.69 492.15 1360.53 492.82 1367.11 491.41 C 1355.70 490.86 1344.27 490.91 1332.87 491.41 Z" />
<path fill="#01befe" stroke="#01befe" stroke-width="0.09375" opacity="1.00" d=" M 834.44 658.40 C 838.46 658.15 842.19 659.89 845.92 661.14 C 842.58 661.32 839.24 661.44 835.91 661.62 C 835.53 661.50 834.77 661.24 834.39 661.12 C 834.34 660.20 834.35 659.29 834.44 658.40 Z" />
</g>
<g id="#2bcbffff">
<path fill="#2bcbff" stroke="#2bcbff" stroke-width="0.09375" opacity="1.00" d=" M 1098.45 0.00 L 1596.64 0.00 C 1601.80 9.40 1607.68 18.48 1611.36 28.62 C 1618.45 47.38 1621.09 68.17 1616.95 87.92 C 1613.11 108.31 1603.18 127.18 1590.25 143.26 C 1585.45 149.72 1579.32 154.98 1573.80 160.79 C 1561.69 172.32 1548.01 182.12 1533.66 190.66 C 1494.02 213.71 1449.24 226.78 1404.00 233.02 C 1394.02 234.00 1384.05 235.12 1374.06 235.88 C 1360.05 236.50 1346.02 236.20 1332.00 236.17 C 1319.80 236.17 1307.71 234.50 1295.58 233.45 C 1288.12 232.84 1280.74 230.28 1273.23 231.13 C 1272.80 236.76 1273.27 242.46 1272.09 248.01 C 1270.99 255.01 1267.91 261.45 1264.71 267.69 C 1261.59 273.92 1256.68 278.96 1252.24 284.24 C 1231.45 304.65 1203.67 316.29 1175.59 322.59 C 1154.37 326.86 1132.57 328.97 1110.96 326.92 C 1093.99 325.43 1077.01 322.70 1060.87 317.14 C 1047.68 312.99 1034.90 307.31 1023.40 299.61 C 1012.74 292.19 1001.78 284.55 994.49 273.57 C 986.82 263.11 982.87 250.16 982.64 237.26 C 983.30 229.17 984.10 220.86 987.48 213.38 C 990.66 207.16 994.17 201.06 998.72 195.72 C 1006.12 186.08 1016.13 178.85 1026.39 172.53 C 1049.64 158.05 1076.75 151.14 1103.68 147.74 C 1104.67 147.50 1105.51 146.97 1106.18 146.16 C 1103.31 141.07 1099.51 136.59 1096.42 131.65 C 1085.74 115.36 1078.51 96.54 1077.00 77.03 C 1075.81 69.74 1077.25 62.42 1077.51 55.12 C 1078.78 39.78 1084.50 25.14 1091.87 11.74 C 1094.20 7.91 1096.68 4.15 1098.45 0.00 Z" />
<path fill="#2bcbff" stroke="#2bcbff" stroke-width="0.09375" opacity="1.00" d=" M 948.34 84.18 C 961.95 82.32 975.89 85.09 988.47 90.37 C 997.49 94.23 1004.71 102.02 1007.81 111.31 C 1009.63 116.87 1006.25 121.99 1003.84 126.74 C 1001.42 131.58 996.67 134.51 992.29 137.35 C 980.18 144.35 965.85 146.95 951.98 146.25 C 941.64 144.90 931.03 142.83 922.24 136.89 C 914.54 132.88 908.34 125.54 906.96 116.83 C 906.58 109.52 910.32 102.49 915.67 97.68 C 924.67 89.71 936.57 85.69 948.34 84.18 Z" />
<path fill="#2bcbff" stroke="#2bcbff" stroke-width="0.09375" opacity="1.00" d=" M 304.76 90.95 C 316.30 86.99 328.70 86.77 340.75 87.56 C 353.72 89.37 367.14 93.89 376.14 103.86 C 382.94 111.48 383.91 123.67 378.08 132.11 C 374.77 137.47 369.25 140.78 364.03 144.01 C 356.34 148.75 347.16 149.97 338.39 151.27 C 332.30 152.23 326.11 151.03 320.04 152.04 C 319.06 157.91 320.43 164.00 318.69 169.79 C 317.52 175.51 314.63 180.62 312.66 186.05 C 313.75 187.78 316.24 187.16 317.98 187.41 C 332.00 187.12 346.03 187.33 360.05 187.35 C 369.22 188.04 378.37 189.06 387.55 189.69 C 413.11 193.50 438.75 198.05 463.08 207.02 C 469.51 210.12 476.38 212.17 482.87 215.14 C 506.53 224.96 528.86 238.07 548.65 254.36 C 556.24 261.13 563.08 268.68 570.21 275.90 C 571.47 275.83 572.70 275.50 573.93 275.19 C 570.57 278.81 567.77 283.12 566.94 288.08 C 565.54 297.89 566.49 308.50 572.06 316.96 C 578.22 326.72 589.38 331.65 600.04 334.84 C 599.35 334.99 597.97 335.29 597.28 335.44 C 597.89 340.16 598.29 344.89 597.92 349.65 C 599.20 359.29 596.44 368.76 594.19 378.05 C 590.28 393.22 582.24 406.84 573.93 419.96 C 568.25 428.15 560.77 434.79 553.99 442.00 C 547.93 449.40 539.53 454.22 532.06 460.01 C 523.54 466.52 513.82 471.10 504.61 476.49 C 499.94 479.10 494.76 480.56 489.96 482.90 C 482.41 486.44 474.64 489.52 466.55 491.62 C 446.34 498.82 425.44 504.11 404.27 507.58 C 389.85 510.64 375.09 511.30 360.45 512.71 C 349.67 513.86 338.82 513.11 328.00 513.36 C 321.98 513.64 316.05 512.47 310.05 512.36 C 293.05 511.73 276.27 508.79 259.43 506.64 C 236.56 501.87 213.77 496.05 192.29 486.73 C 180.09 482.22 168.75 475.80 157.32 469.67 C 140.20 459.79 124.22 447.77 110.70 433.30 C 101.61 424.46 94.08 414.11 87.98 403.01 C 75.46 380.57 70.84 353.58 76.51 328.39 C 82.21 303.85 95.78 281.33 114.22 264.22 C 127.85 249.72 144.54 238.48 161.83 228.82 C 163.09 228.01 164.22 227.02 165.28 225.97 C 163.42 224.94 161.42 224.17 159.37 223.63 C 146.64 220.21 134.55 214.62 123.46 207.53 C 114.99 201.50 106.66 194.75 101.36 185.63 C 93.95 175.30 91.56 161.73 94.38 149.40 C 96.65 137.46 103.96 126.94 112.94 118.99 C 120.52 113.08 128.08 106.78 137.17 103.32 C 143.99 100.04 151.07 97.40 158.38 95.47 C 166.37 92.63 174.87 92.03 183.14 90.42 C 192.65 88.57 202.38 89.57 212.00 89.32 C 226.44 88.77 240.67 92.05 254.58 95.58 C 260.19 96.95 265.59 99.05 270.92 101.23 C 274.67 102.78 278.05 105.16 281.97 106.29 C 285.23 103.81 287.35 100.09 290.91 97.97 C 295.32 95.25 299.91 92.78 304.76 90.95 Z" />
</g>
<g id="#fefefeff">
<path fill="#fefefe" stroke="#fefefe" stroke-width="0.09375" opacity="1.00" d=" M 1692.11 0.00 L 1726.62 0.00 C 1750.58 31.19 1762.61 69.47 1771.78 107.20 C 1781.49 148.82 1789.18 191.01 1792.32 233.67 C 1793.81 258.10 1794.04 282.68 1791.77 307.07 C 1787.87 348.40 1776.94 389.18 1758.36 426.36 C 1742.93 457.68 1722.58 486.39 1699.58 512.58 C 1692.38 520.39 1685.44 528.48 1677.54 535.60 C 1671.77 540.81 1666.88 546.90 1661.01 552.01 C 1605.91 603.72 1540.93 644.72 1470.84 672.88 C 1388.09 706.36 1298.95 722.08 1210.02 725.60 C 1188.01 725.45 1165.95 726.35 1143.99 724.67 C 1133.64 724.88 1123.36 723.46 1113.03 723.25 C 1100.38 722.16 1087.66 722.01 1075.02 720.92 C 1061.33 720.24 1047.70 718.80 1033.99 718.51 C 1011.38 716.67 988.67 716.37 965.99 715.82 C 931.87 715.72 897.56 716.91 863.95 723.14 C 862.21 723.56 860.51 723.10 859.06 722.16 C 857.46 716.19 855.46 710.34 853.46 704.49 C 850.54 696.54 848.08 688.40 844.19 680.86 C 841.79 674.28 838.64 668.05 835.91 661.62 C 839.24 661.44 842.58 661.32 845.92 661.14 C 852.80 661.99 859.38 664.22 866.10 665.81 C 881.14 669.62 895.97 674.39 910.16 680.69 C 918.45 684.15 926.13 688.88 933.97 693.22 C 936.37 690.76 936.63 686.98 937.82 683.87 C 940.03 677.09 941.77 670.15 944.63 663.60 C 953.47 664.66 961.66 668.32 970.12 670.89 C 992.02 677.79 1012.66 688.97 1035.56 692.47 C 1044.44 693.62 1053.98 694.23 1062.31 690.33 C 1070.50 686.69 1075.99 679.27 1081.67 672.65 C 1086.04 667.65 1089.48 661.92 1093.88 656.95 C 1131.30 652.67 1168.37 645.61 1205.06 637.14 C 1213.46 635.53 1221.73 633.31 1229.99 631.07 C 1292.68 614.90 1354.12 593.53 1412.55 565.54 C 1446.47 549.24 1479.31 530.65 1510.41 509.44 C 1524.30 500.18 1537.41 489.84 1550.58 479.61 C 1564.52 468.31 1578.00 456.40 1590.51 443.52 C 1616.75 418.27 1639.48 389.48 1658.49 358.45 C 1678.79 324.94 1694.00 288.33 1703.24 250.24 C 1708.75 226.52 1712.15 202.31 1713.40 178.00 C 1713.76 163.67 1713.49 149.33 1713.50 135.00 C 1713.42 129.02 1712.17 123.13 1711.82 117.16 C 1711.08 105.65 1709.16 94.26 1707.35 82.87 C 1704.13 62.16 1699.36 41.71 1693.54 21.58 C 1691.54 14.56 1692.27 7.20 1692.11 0.00 M 1762.01 218.92 C 1742.91 273.93 1724.37 329.50 1697.17 381.18 C 1679.36 415.28 1658.29 447.93 1632.55 476.60 C 1628.75 479.83 1626.22 484.20 1622.68 487.67 C 1616.67 493.66 1610.88 499.89 1604.47 505.47 C 1598.99 509.62 1594.50 514.87 1589.00 519.01 C 1574.52 531.15 1558.97 541.95 1543.00 552.02 C 1506.21 574.73 1466.12 591.62 1425.13 605.09 C 1384.19 618.65 1342.01 627.90 1300.19 638.28 C 1299.04 638.73 1297.28 638.69 1296.91 640.14 C 1315.62 641.28 1334.33 639.15 1352.95 637.32 C 1361.51 636.09 1370.20 635.75 1378.65 633.80 C 1398.99 630.67 1419.11 626.22 1439.00 620.96 C 1503.61 603.55 1565.89 573.89 1615.95 528.98 C 1654.67 494.94 1685.78 452.75 1708.78 406.71 C 1728.08 369.24 1741.96 329.16 1752.38 288.38 C 1757.25 268.21 1761.69 247.84 1764.00 227.21 C 1765.68 221.68 1765.89 215.68 1765.80 209.92 C 1763.90 212.61 1762.91 215.79 1762.01 218.92 Z" />
<path fill="#fefefe" stroke="#fefefe" stroke-width="0.09375" opacity="1.00" d=" M 1644.84 186.85 C 1648.27 179.97 1650.96 172.72 1654.74 166.02 C 1654.99 177.80 1654.28 189.57 1652.65 201.24 C 1650.63 222.06 1645.78 242.49 1639.48 262.41 C 1632.02 285.23 1622.69 307.54 1610.46 328.24 C 1606.55 336.41 1601.14 343.70 1596.29 351.31 C 1588.58 363.36 1579.32 374.28 1570.42 385.43 C 1557.14 399.80 1543.46 413.95 1528.01 425.99 C 1481.96 463.38 1424.47 487.45 1364.98 490.44 C 1342.26 491.08 1319.36 490.46 1297.09 485.59 C 1316.05 478.74 1335.21 472.38 1353.98 464.96 C 1390.39 450.61 1426.19 434.25 1459.41 413.45 C 1492.68 393.16 1522.85 367.88 1548.91 338.92 C 1589.33 294.17 1619.22 241.13 1644.84 186.85 Z" />
<path fill="#fefefe" stroke="#fefefe" stroke-width="0.09375" opacity="1.00" d=" M 611.25 974.23 C 617.78 975.87 624.50 976.01 631.18 976.54 C 629.34 976.70 627.05 975.91 625.55 977.25 C 615.65 1034.85 600.78 1091.96 576.53 1145.30 C 575.42 1145.17 574.31 1145.06 573.20 1144.97 C 569.60 1144.26 566.05 1143.32 562.47 1142.55 C 584.91 1093.89 599.41 1041.94 609.19 989.37 C 610.04 984.34 611.46 979.36 611.25 974.23 Z" />
</g>
<g id="#d9975aff">
<path fill="#d9975a" stroke="#d9975a" stroke-width="0.09375" opacity="1.00" d=" M 1726.62 0.00 L 1918.97 0.00 C 1918.95 453.33 1918.90 906.67 1918.98 1360.00 L 1007.93 1360.00 C 1003.60 1315.53 991.87 1272.29 980.89 1229.12 C 976.46 1211.91 971.59 1194.80 966.05 1177.91 C 958.82 1157.28 950.74 1136.68 938.50 1118.44 C 933.43 1110.83 927.66 1103.63 920.82 1097.54 C 927.51 1093.74 933.98 1089.54 940.44 1085.36 C 942.17 1084.67 941.91 1082.36 940.55 1081.45 C 934.59 1075.87 930.09 1069.01 925.77 1062.15 C 914.09 1045.32 906.25 1026.24 898.79 1007.27 C 892.50 990.40 886.39 973.47 880.13 956.59 C 879.68 955.24 878.24 955.03 877.08 954.70 C 885.94 953.24 894.75 948.21 898.96 940.04 C 900.87 933.78 901.95 927.04 900.85 920.52 C 899.06 907.63 894.77 895.25 892.43 882.46 C 891.23 874.58 888.43 867.02 887.91 859.03 C 886.19 850.41 885.49 841.63 883.67 833.03 C 881.32 820.60 879.44 808.09 877.04 795.67 C 873.94 783.77 872.43 771.53 869.28 759.64 C 866.31 747.03 863.18 734.45 859.06 722.16 C 860.51 723.10 862.21 723.56 863.95 723.14 C 897.56 716.91 931.87 715.72 965.99 715.82 C 988.67 716.37 1011.38 716.67 1033.99 718.51 C 1047.70 718.80 1061.33 720.24 1075.02 720.92 C 1087.66 722.01 1100.38 722.16 1113.03 723.25 C 1123.36 723.46 1133.64 724.88 1143.99 724.67 C 1165.95 726.35 1188.01 725.45 1210.02 725.60 C 1298.95 722.08 1388.09 706.36 1470.84 672.88 C 1540.93 644.72 1605.91 603.72 1661.01 552.01 C 1666.88 546.90 1671.77 540.81 1677.54 535.60 C 1685.44 528.48 1692.38 520.39 1699.58 512.58 C 1722.58 486.39 1742.93 457.68 1758.36 426.36 C 1776.94 389.18 1787.87 348.40 1791.77 307.07 C 1794.04 282.68 1793.81 258.10 1792.32 233.67 C 1789.18 191.01 1781.49 148.82 1771.78 107.20 C 1762.61 69.47 1750.58 31.19 1726.62 0.00 M 1811.37 603.40 C 1806.35 607.34 1802.72 613.11 1796.53 615.48 C 1789.88 619.37 1781.73 616.72 1774.93 619.95 C 1770.25 622.86 1769.81 629.01 1768.79 633.90 C 1767.16 641.24 1768.67 649.32 1765.20 656.18 C 1760.94 660.49 1755.17 663.71 1749.14 664.58 C 1742.42 659.45 1736.95 652.86 1730.04 647.96 C 1725.36 644.63 1720.54 639.38 1714.31 640.30 C 1711.33 642.86 1712.07 647.19 1712.45 650.64 C 1714.05 659.84 1717.67 668.53 1720.73 677.31 C 1727.88 694.65 1735.02 711.99 1742.92 729.00 C 1745.06 734.15 1745.67 739.76 1746.51 745.23 C 1747.63 754.62 1750.18 763.75 1751.74 773.07 C 1754.04 785.85 1757.85 798.32 1762.53 810.42 C 1764.71 816.46 1768.39 821.78 1771.89 827.13 C 1775.75 832.78 1782.86 837.02 1789.82 834.77 C 1794.24 832.93 1798.28 830.05 1801.33 826.34 C 1808.28 818.17 1813.54 808.72 1818.11 799.06 C 1820.23 794.43 1820.81 788.50 1817.81 784.14 C 1813.88 779.71 1808.57 776.49 1802.83 775.07 C 1797.59 773.78 1792.37 772.25 1786.98 771.83 C 1783.39 771.65 1780.32 769.50 1777.62 767.36 C 1771.12 759.07 1771.63 748.00 1772.37 738.07 C 1773.63 728.12 1776.63 718.49 1780.13 709.12 C 1782.72 700.87 1786.96 693.30 1790.43 685.42 C 1794.38 677.96 1798.82 670.72 1804.12 664.14 C 1809.98 655.80 1817.22 648.12 1826.36 643.39 C 1829.59 641.47 1833.42 639.87 1835.22 636.33 C 1839.44 629.79 1838.18 621.03 1834.17 614.70 C 1831.74 611.00 1829.34 606.70 1824.90 605.20 C 1820.70 603.58 1815.66 600.22 1811.37 603.40 M 1173.41 785.38 C 1170.24 794.51 1168.47 804.33 1168.95 814.01 C 1171.54 812.97 1172.99 810.38 1173.80 807.85 C 1175.66 802.04 1178.03 796.39 1179.45 790.44 C 1179.99 787.25 1181.11 783.56 1179.34 780.59 C 1176.17 778.59 1174.50 783.18 1173.41 785.38 M 1201.86 808.80 C 1190.56 811.77 1179.36 815.17 1168.35 819.09 C 1152.13 823.06 1136.48 828.92 1120.43 833.46 C 1110.57 837.50 1100.66 841.45 1091.02 845.99 C 1084.77 848.77 1079.25 852.84 1073.57 856.57 C 1068.22 860.21 1064.57 866.49 1064.83 873.04 C 1064.95 875.60 1066.46 878.00 1068.70 879.28 C 1074.48 882.53 1075.76 889.98 1074.89 896.05 C 1074.56 905.55 1070.82 914.89 1072.61 924.43 C 1074.09 932.80 1081.14 938.80 1088.16 942.83 C 1095.94 946.11 1104.79 945.39 1112.92 943.92 C 1120.54 942.66 1127.58 939.19 1134.02 935.05 C 1139.79 931.14 1144.33 924.24 1142.91 917.02 C 1142.56 912.17 1138.80 908.25 1134.35 906.72 C 1127.31 904.34 1119.52 905.36 1112.66 902.35 C 1109.88 901.36 1108.96 898.21 1108.40 895.63 C 1107.73 890.14 1110.83 885.15 1113.88 880.88 C 1119.16 873.86 1127.29 870.04 1134.69 865.72 C 1163.85 852.58 1195.67 847.15 1227.04 842.07 C 1232.67 841.13 1238.55 841.17 1243.90 838.92 C 1251.48 835.83 1257.75 830.13 1262.56 823.59 C 1264.64 820.50 1265.51 816.01 1263.20 812.80 C 1258.50 809.62 1252.68 808.24 1247.07 808.19 C 1242.28 808.31 1238.46 811.42 1235.83 815.18 C 1233.51 811.27 1234.05 806.48 1232.64 802.28 C 1231.15 801.68 1229.53 801.68 1228.01 801.94 C 1219.09 803.40 1210.51 806.29 1201.86 808.80 M 1618.32 907.29 C 1597.09 914.93 1574.24 914.27 1552.06 915.93 C 1546.03 916.05 1539.99 916.26 1534.03 917.19 C 1523.11 918.45 1512.08 920.40 1502.05 925.10 C 1495.00 928.61 1488.82 934.04 1485.15 941.08 C 1480.90 948.98 1477.02 957.22 1470.95 963.95 C 1469.57 964.91 1467.80 965.06 1466.20 965.32 C 1455.08 966.36 1444.25 961.14 1433.14 963.16 C 1429.18 964.37 1425.34 966.71 1423.39 970.49 C 1421.58 973.29 1419.18 977.18 1421.73 980.30 C 1424.57 982.69 1428.56 981.98 1432.00 982.15 C 1440.72 982.21 1449.93 979.45 1458.34 982.72 C 1461.49 983.52 1461.24 987.15 1460.54 989.66 C 1458.42 994.30 1453.61 997.28 1451.70 1001.95 C 1452.03 1002.25 1452.70 1002.87 1453.04 1003.17 C 1460.11 1003.62 1466.81 1000.00 1473.92 1000.15 C 1474.00 1000.63 1474.16 1001.59 1474.24 1002.07 C 1473.12 1007.58 1469.92 1013.17 1464.53 1015.46 C 1457.62 1018.31 1450.32 1020.65 1444.42 1025.42 C 1440.44 1028.13 1437.32 1032.89 1438.18 1037.86 C 1438.95 1040.64 1440.50 1043.37 1442.99 1044.96 C 1448.29 1048.68 1455.30 1048.36 1461.38 1047.24 C 1469.67 1045.07 1474.27 1037.34 1478.70 1030.69 C 1487.53 1016.76 1491.32 1000.50 1498.97 985.99 C 1506.68 969.62 1520.83 956.34 1537.70 949.76 C 1543.79 947.47 1551.09 946.77 1556.96 950.07 C 1561.85 952.62 1565.42 956.94 1569.26 960.78 C 1573.79 965.29 1576.81 971.09 1581.71 975.29 C 1589.88 984.16 1601.53 991.14 1613.99 989.82 C 1620.02 988.62 1625.70 985.40 1629.80 980.81 C 1637.05 972.95 1640.42 962.31 1641.87 951.92 C 1643.91 942.06 1644.13 931.11 1638.83 922.19 C 1635.08 916.10 1631.18 909.95 1626.01 904.96 C 1623.41 903.50 1620.82 906.64 1618.32 907.29 M 1242.24 1186.74 C 1245.43 1192.15 1252.48 1192.42 1257.23 1195.79 C 1258.90 1197.42 1257.36 1199.80 1255.59 1200.58 C 1244.03 1207.20 1230.87 1210.98 1220.25 1219.23 C 1221.41 1221.90 1224.65 1222.66 1226.92 1224.18 C 1228.26 1225.18 1230.71 1225.69 1230.71 1227.74 C 1228.92 1229.38 1226.21 1228.40 1224.03 1228.68 C 1218.16 1228.81 1211.23 1228.74 1206.71 1233.04 C 1206.66 1234.96 1208.49 1236.20 1209.97 1237.12 C 1220.41 1243.10 1232.29 1245.62 1243.62 1249.38 C 1252.31 1251.60 1260.99 1254.03 1269.90 1255.24 C 1281.43 1257.39 1293.22 1259.00 1304.96 1257.98 C 1316.39 1256.36 1327.10 1251.79 1337.90 1247.96 C 1349.02 1244.42 1360.13 1239.80 1372.00 1239.93 C 1379.07 1239.45 1386.19 1241.13 1392.35 1244.64 C 1398.10 1247.64 1402.09 1252.90 1406.75 1257.26 C 1413.02 1263.78 1420.68 1268.69 1427.83 1274.16 C 1432.99 1277.65 1438.66 1280.44 1444.59 1282.34 C 1450.68 1283.70 1457.84 1284.16 1463.00 1279.99 C 1470.14 1274.31 1472.53 1264.93 1474.47 1256.43 C 1475.76 1248.68 1477.70 1239.88 1473.27 1232.76 C 1471.28 1228.84 1466.91 1227.10 1462.88 1226.20 C 1451.54 1224.36 1440.38 1228.10 1429.78 1231.65 C 1423.30 1232.86 1417.49 1236.30 1410.99 1237.35 C 1404.24 1237.04 1398.10 1233.82 1392.32 1230.63 C 1387.65 1226.93 1382.67 1223.66 1377.80 1220.25 C 1367.11 1213.45 1353.80 1215.14 1342.30 1210.72 C 1335.59 1208.19 1328.71 1206.00 1322.44 1202.50 C 1309.79 1195.73 1298.48 1186.75 1285.68 1180.27 C 1275.74 1175.30 1265.64 1168.68 1254.00 1169.70 C 1245.65 1169.10 1238.00 1179.06 1242.24 1186.74 Z" />
<path fill="#d9975a" stroke="#d9975a" stroke-width="0.09375" opacity="1.00" d=" M 529.94 956.47 C 534.39 958.05 539.25 957.51 543.69 959.05 C 549.33 961.08 555.61 959.09 561.16 961.52 C 567.02 961.91 572.94 961.47 578.79 962.25 C 581.20 964.47 583.94 966.31 586.96 967.61 C 586.37 967.83 585.19 968.27 584.60 968.49 C 575.07 999.88 564.99 1031.17 556.89 1062.99 C 555.01 1070.57 553.06 1078.15 551.74 1085.86 C 550.27 1094.86 547.90 1103.80 548.29 1113.00 C 547.90 1121.84 548.29 1131.61 554.32 1138.69 C 556.28 1141.21 559.46 1142.06 562.47 1142.55 C 566.05 1143.32 569.60 1144.26 573.20 1144.97 C 558.21 1180.58 551.45 1219.26 533.95 1253.88 C 525.82 1270.89 513.47 1285.30 502.44 1300.43 C 488.68 1319.65 474.39 1338.71 463.92 1360.00 L 0.00 1360.00 L 0.00 1140.76 C 25.52 1140.60 50.87 1137.13 76.21 1134.35 C 127.78 1127.69 178.92 1117.67 229.11 1104.09 C 280.57 1090.24 331.08 1072.64 379.62 1050.59 C 422.28 1031.19 463.47 1008.17 501.00 980.00 C 510.78 972.33 520.89 965.01 529.94 956.47 M 375.37 1169.41 C 368.74 1171.34 362.27 1173.90 356.17 1177.14 C 353.13 1178.90 349.61 1180.75 348.38 1184.30 C 347.00 1188.90 348.51 1193.69 349.90 1198.11 C 352.17 1205.34 351.76 1213.89 347.12 1220.14 C 344.74 1223.37 342.54 1226.82 339.47 1229.47 C 334.86 1233.61 329.13 1236.25 323.38 1238.39 C 310.39 1242.78 296.50 1241.71 283.03 1242.67 C 268.80 1242.69 254.05 1243.01 240.81 1248.86 C 236.34 1251.92 231.80 1255.48 229.20 1260.34 C 227.53 1263.62 231.27 1266.34 234.12 1266.96 C 241.70 1268.10 249.39 1266.71 257.01 1267.10 C 259.03 1267.06 260.54 1268.75 261.47 1270.38 C 262.62 1277.96 262.08 1285.72 260.39 1293.19 C 259.60 1299.50 257.56 1306.12 259.49 1312.41 C 260.03 1314.72 262.93 1314.80 264.60 1313.70 C 268.35 1311.56 271.89 1308.99 274.84 1305.84 C 276.48 1304.24 278.02 1301.96 280.61 1302.20 C 281.22 1309.14 279.62 1316.05 280.06 1323.01 C 280.02 1330.28 281.77 1338.45 287.79 1343.16 C 293.56 1346.01 300.44 1345.16 306.39 1343.31 C 313.74 1339.75 319.83 1333.70 323.40 1326.35 C 329.03 1317.19 331.90 1306.76 335.93 1296.89 C 342.64 1277.18 347.00 1256.80 353.06 1236.90 C 356.42 1226.31 359.68 1215.38 366.34 1206.31 C 368.64 1203.45 372.06 1201.80 375.42 1200.53 C 384.59 1197.24 394.29 1195.89 403.80 1193.95 C 407.82 1193.04 413.08 1193.12 415.34 1189.01 C 414.53 1187.72 413.52 1186.56 412.25 1185.74 C 404.81 1181.00 397.36 1176.20 389.17 1172.82 C 384.82 1171.05 380.25 1167.89 375.37 1169.41 Z" />
<path fill="#d9975a" stroke="#d9975a" stroke-width="0.09375" opacity="1.00" d=" M 734.32 1061.19 C 735.09 1059.74 736.37 1057.57 738.35 1058.55 C 748.67 1073.42 758.13 1088.89 767.91 1104.13 C 772.65 1111.84 777.42 1119.57 781.19 1127.82 C 783.01 1131.76 786.12 1135.15 790.21 1136.81 C 801.37 1142.00 814.09 1139.57 825.75 1137.70 C 834.99 1156.14 841.97 1175.63 850.54 1194.39 C 858.58 1212.51 867.42 1230.56 879.88 1246.12 C 881.97 1248.91 884.97 1251.02 886.66 1254.11 C 880.49 1274.95 879.23 1296.97 880.49 1318.59 C 881.48 1332.57 883.25 1346.58 887.43 1360.00 L 606.85 1360.00 C 617.70 1342.17 626.00 1322.95 635.40 1304.36 C 657.75 1259.98 667.18 1210.81 679.69 1163.13 C 678.07 1162.94 676.44 1162.86 674.82 1162.84 C 681.05 1162.35 687.42 1162.43 693.42 1160.43 C 700.09 1158.32 706.83 1154.36 709.82 1147.74 C 713.73 1139.14 715.26 1129.72 716.78 1120.47 C 721.28 1100.40 724.26 1079.45 734.32 1061.19 Z" />
</g>
<g id="#f1b885ff">
<path fill="#f1b885" stroke="#f1b885" stroke-width="0.09375" opacity="1.00" d=" M 1918.97 0.00 L 1920.00 0.00 L 1920.00 1360.00 L 1918.98 1360.00 C 1918.90 906.67 1918.95 453.33 1918.97 0.00 Z" />
</g>
<g id="#000000ff">
<path fill="#000000" stroke="#000000" stroke-width="0.09375" opacity="1.00" d=" M 716.96 66.08 C 741.60 62.86 767.01 62.36 791.24 68.54 C 805.74 72.12 820.04 78.57 830.51 89.48 C 839.78 98.94 845.36 111.83 846.42 125.00 C 846.48 126.56 846.50 128.22 845.77 129.66 C 845.05 129.84 843.60 130.20 842.88 130.39 C 841.87 129.55 840.85 128.72 839.87 127.88 C 836.07 124.09 832.29 120.28 828.33 116.67 C 823.45 112.17 817.00 110.05 810.82 108.05 C 798.80 104.31 785.70 105.27 773.95 109.51 C 753.77 117.08 737.56 131.72 720.30 144.11 C 730.20 123.39 747.04 106.84 765.91 94.14 C 748.12 98.47 730.64 104.10 713.56 110.69 C 693.17 118.76 673.09 128.24 655.56 141.55 C 644.46 150.16 634.11 160.65 628.98 173.97 C 624.94 184.13 625.07 195.72 628.84 205.94 C 635.49 224.81 645.20 242.59 650.16 262.06 C 651.14 266.97 652.46 272.46 650.13 277.18 C 647.99 281.11 642.83 280.99 639.03 280.19 C 631.10 278.30 623.82 274.37 617.02 269.98 C 613.01 265.60 608.97 261.17 605.96 256.03 C 598.56 243.70 593.38 230.01 584.23 218.77 C 578.42 211.52 574.27 203.00 572.03 194.00 C 569.02 181.76 571.44 168.79 576.44 157.42 C 583.78 141.22 596.04 127.90 609.17 116.16 C 623.07 104.02 638.46 93.63 654.49 84.52 C 673.95 74.61 695.48 69.39 716.96 66.08 Z" />
</g>
<g id="#f9ccafff">
<path fill="#f9ccaf" stroke="#f9ccaf" stroke-width="0.09375" opacity="1.00" d=" M 713.56 110.69 C 730.64 104.10 748.12 98.47 765.91 94.14 C 747.04 106.84 730.20 123.39 720.30 144.11 C 737.56 131.72 753.77 117.08 773.95 109.51 C 777.50 110.59 777.91 114.78 779.33 117.68 C 793.44 152.44 789.63 191.37 802.48 226.47 C 807.59 240.11 817.07 252.09 819.40 266.75 C 819.79 270.00 820.30 274.14 817.60 276.57 C 813.50 279.00 808.53 278.87 803.93 279.28 C 793.29 280.10 782.60 279.29 771.95 279.92 C 769.17 280.14 765.73 280.56 764.36 283.37 C 764.32 289.05 768.45 293.61 770.05 298.88 C 774.26 312.18 778.01 325.63 781.38 339.17 C 780.39 339.48 779.38 339.68 778.36 339.76 C 776.88 336.13 777.09 331.66 774.33 328.66 C 771.23 326.73 767.04 327.35 763.91 328.92 C 756.96 332.62 757.56 342.98 750.08 346.04 C 743.74 348.43 736.82 348.31 730.18 349.23 C 724.52 350.05 718.63 349.45 713.13 351.19 C 713.20 351.78 713.33 352.96 713.40 353.55 C 716.37 355.74 720.05 356.58 723.57 357.49 C 740.73 361.40 758.41 361.77 775.79 364.21 C 777.83 364.46 779.88 364.73 781.91 365.21 C 781.80 371.15 779.32 376.71 777.17 382.15 C 770.13 398.10 756.00 409.00 745.47 422.45 C 740.24 429.75 736.07 438.37 736.45 447.56 L 736.30 448.25 C 732.72 456.30 733.56 465.43 733.27 474.03 C 733.16 478.62 731.82 483.16 732.40 487.76 C 732.47 488.24 732.61 489.19 732.67 489.67 C 727.37 492.76 721.79 495.45 715.68 496.41 C 715.91 496.87 716.16 497.34 716.42 497.81 C 711.59 498.13 706.84 499.09 702.02 499.42 C 692.99 499.40 684.59 495.59 675.86 493.81 C 675.96 493.33 676.07 492.86 676.17 492.39 C 670.12 490.99 664.25 488.76 657.98 488.56 C 658.00 488.17 658.04 487.40 658.05 487.01 C 658.53 481.58 658.47 476.11 659.34 470.72 C 659.92 461.48 659.69 452.21 659.47 442.96 C 656.48 417.20 648.17 392.50 642.84 367.20 C 641.37 359.88 637.78 352.88 631.90 348.15 C 622.68 340.95 611.14 337.82 600.04 334.84 C 589.38 331.65 578.22 326.72 572.06 316.96 C 566.49 308.50 565.54 297.89 566.94 288.08 C 567.77 283.12 570.57 278.81 573.93 275.19 C 578.06 271.31 583.42 268.79 588.96 267.76 C 598.36 266.82 607.93 267.27 617.02 269.98 C 623.82 274.37 631.10 278.30 639.03 280.19 C 642.83 280.99 647.99 281.11 650.13 277.18 C 652.46 272.46 651.14 266.97 650.16 262.06 C 645.20 242.59 635.49 224.81 628.84 205.94 C 625.07 195.72 624.94 184.13 628.98 173.97 C 634.11 160.65 644.46 150.16 655.56 141.55 C 673.09 128.24 693.17 118.76 713.56 110.69 M 700.27 224.13 C 695.16 226.87 690.21 231.13 688.69 236.94 C 710.15 237.40 730.78 230.30 750.54 222.68 L 750.76 222.05 C 745.69 219.92 740.19 219.09 734.77 218.56 C 723.09 217.76 710.85 218.75 700.27 224.13 M 596.39 283.44 C 591.13 284.09 585.29 285.39 581.76 289.69 C 580.29 292.32 580.95 295.88 582.82 298.18 C 588.79 305.65 597.26 310.96 606.39 313.67 C 610.56 314.90 615.20 315.92 619.41 314.36 C 622.28 313.27 623.43 309.88 622.97 307.04 C 621.96 300.22 618.24 294.24 614.32 288.72 C 612.91 286.84 611.72 284.68 609.75 283.33 C 605.32 282.82 600.82 283.01 596.39 283.44 Z" />
<path fill="#f9ccaf" stroke="#f9ccaf" stroke-width="0.09375" opacity="1.00" d=" M 1212.56 366.43 C 1216.19 358.71 1226.01 355.93 1233.83 357.94 C 1239.44 360.41 1240.16 367.70 1239.01 373.00 C 1235.90 388.78 1228.12 403.11 1223.52 418.44 C 1222.91 420.80 1221.85 423.47 1223.19 425.80 C 1226.91 426.42 1229.90 423.72 1232.75 421.77 C 1243.16 414.67 1250.47 404.11 1260.21 396.22 C 1264.95 392.22 1270.80 389.47 1276.97 388.61 C 1279.97 388.24 1283.47 389.06 1285.21 391.75 C 1286.90 395.36 1286.07 399.56 1285.00 403.23 C 1283.25 408.82 1278.64 412.83 1273.85 415.85 C 1265.23 421.17 1255.31 423.75 1246.28 428.24 C 1241.32 430.66 1236.13 433.18 1232.58 437.55 C 1229.76 441.16 1230.09 446.58 1232.96 450.05 C 1236.75 452.63 1241.65 452.56 1246.04 452.15 C 1256.67 450.96 1267.16 447.01 1277.97 448.75 C 1280.33 449.42 1282.66 451.42 1282.64 454.06 C 1282.78 457.14 1283.31 461.24 1279.99 462.90 C 1272.84 466.81 1265.56 470.52 1258.31 474.27 C 1248.73 478.64 1239.62 483.98 1229.88 488.00 C 1213.61 496.23 1197.10 504.07 1181.59 513.70 C 1174.57 519.30 1169.13 526.53 1163.45 533.41 C 1151.97 549.09 1141.96 565.82 1133.16 583.14 C 1126.10 597.37 1119.05 611.60 1111.75 625.71 C 1106.15 636.32 1099.96 646.61 1093.88 656.95 C 1089.48 661.92 1086.04 667.65 1081.67 672.65 C 1075.99 679.27 1070.50 686.69 1062.31 690.33 C 1053.98 694.23 1044.44 693.62 1035.56 692.47 C 1012.66 688.97 992.02 677.79 970.12 670.89 C 961.66 668.32 953.47 664.66 944.63 663.60 C 946.05 658.64 948.02 653.78 948.33 648.57 C 948.80 648.85 949.28 649.15 949.78 649.46 C 949.92 646.82 950.00 644.18 950.20 641.55 C 950.71 641.84 951.24 642.13 951.78 642.43 C 951.90 639.79 951.96 637.15 952.17 634.52 C 952.68 634.82 953.20 635.13 953.73 635.45 C 953.22 629.74 955.98 624.61 957.17 619.20 C 957.93 615.64 957.46 611.73 959.44 608.52 C 961.89 609.81 964.45 610.94 967.12 611.74 C 973.91 613.69 980.29 616.78 987.01 618.96 C 1001.22 623.78 1015.78 628.82 1031.01 628.52 C 1043.53 629.20 1056.88 626.07 1066.02 617.02 C 1073.61 610.65 1078.08 601.70 1083.86 593.84 C 1088.22 586.86 1093.28 580.32 1097.13 573.02 C 1100.13 568.33 1103.34 563.77 1105.97 558.84 C 1114.25 546.61 1121.85 533.93 1129.17 521.11 C 1133.63 513.84 1138.29 506.68 1142.16 499.07 C 1145.11 493.43 1145.37 486.49 1143.29 480.54 C 1140.08 475.31 1135.10 471.48 1131.01 466.98 C 1124.32 460.17 1116.11 453.57 1114.23 443.68 C 1113.60 439.93 1112.52 435.05 1115.29 432.01 C 1121.13 429.75 1126.96 433.24 1131.82 436.24 C 1138.42 439.71 1142.01 446.88 1148.69 450.24 C 1151.97 452.11 1157.00 452.94 1159.77 449.76 C 1163.26 446.02 1162.86 440.53 1164.75 436.06 C 1166.01 432.86 1165.32 429.35 1165.51 426.01 C 1165.92 409.91 1165.38 393.72 1167.59 377.73 C 1168.36 371.05 1171.89 364.01 1178.19 361.02 C 1181.73 359.23 1185.31 362.12 1186.80 365.24 C 1191.93 375.22 1192.88 386.90 1191.55 397.90 C 1190.93 404.19 1189.07 410.52 1190.19 416.86 C 1192.09 417.05 1192.84 414.98 1193.57 413.62 C 1200.00 397.94 1205.37 381.80 1212.56 366.43 M 1024.92 629.22 L 1025.40 629.88 C 1030.24 630.30 1035.56 631.11 1040.19 629.35 C 1035.11 628.89 1030.00 628.97 1024.92 629.22 Z" />
<path fill="#f9ccaf" stroke="#f9ccaf" stroke-width="0.09375" opacity="1.00" d=" M 516.33 728.25 C 523.18 725.72 531.23 725.79 537.65 729.49 C 538.02 732.79 536.04 735.68 534.41 738.37 C 523.31 755.26 509.08 769.76 496.82 785.76 C 501.02 783.34 504.91 780.39 509.28 778.27 C 524.62 770.69 542.05 768.09 559.02 768.82 C 565.56 769.58 572.39 769.42 578.58 771.94 C 569.98 778.52 559.45 781.85 549.99 786.98 C 537.98 792.94 524.85 800.55 520.12 813.90 C 525.07 813.10 529.64 810.91 534.39 809.38 C 546.22 805.40 558.38 801.49 571.00 801.51 C 581.27 801.32 591.87 803.91 600.24 810.01 C 597.44 812.16 594.15 813.49 590.98 814.99 C 570.93 824.33 550.60 833.23 531.57 844.56 C 528.71 846.62 524.78 848.27 523.75 851.94 C 524.55 853.50 526.68 853.35 528.18 853.62 C 540.56 854.03 553.04 853.02 565.36 854.79 C 569.07 855.46 573.85 856.53 574.45 861.01 C 571.87 865.36 567.68 868.22 563.31 870.55 C 548.70 875.46 533.10 874.34 518.08 876.90 C 506.86 878.42 497.54 885.37 488.20 891.22 C 474.61 900.43 461.32 910.07 447.94 919.60 C 440.73 924.12 433.75 928.99 426.61 933.62 C 420.44 937.62 413.81 940.83 407.32 944.26 C 399.42 948.07 390.86 951.32 381.97 951.14 C 375.62 951.02 369.65 946.92 367.62 940.86 C 367.31 940.81 366.70 940.72 366.39 940.67 C 365.98 934.11 364.17 927.60 365.07 921.01 C 365.47 914.63 365.51 908.10 368.02 902.10 C 373.10 886.88 380.37 872.45 389.40 859.18 C 389.84 858.47 390.29 857.77 390.74 857.08 C 400.84 841.57 412.01 826.62 419.72 809.71 C 424.39 800.24 426.74 789.90 429.84 779.88 C 433.48 767.79 437.12 755.65 442.01 744.00 C 443.67 740.54 445.10 736.62 448.31 734.29 C 450.47 733.59 451.75 735.96 452.32 737.66 C 457.02 754.05 454.93 771.25 456.07 788.03 C 460.52 784.45 463.57 779.53 467.12 775.14 C 474.89 764.98 482.70 754.79 491.67 745.65 C 498.83 738.57 506.63 731.57 516.33 728.25 Z" />
<path fill="#f9ccaf" stroke="#f9ccaf" stroke-width="0.09375" opacity="1.00" d=" M 825.75 1137.70 C 859.41 1129.70 890.64 1114.08 920.82 1097.54 C 927.66 1103.63 933.43 1110.83 938.50 1118.44 C 950.74 1136.68 958.82 1157.28 966.05 1177.91 C 971.59 1194.80 976.46 1211.91 980.89 1229.12 C 991.87 1272.29 1003.60 1315.53 1007.93 1360.00 L 887.43 1360.00 C 883.25 1346.58 881.48 1332.57 880.49 1318.59 C 879.23 1296.97 880.49 1274.95 886.66 1254.11 C 884.97 1251.02 881.97 1248.91 879.88 1246.12 C 867.42 1230.56 858.58 1212.51 850.54 1194.39 C 841.97 1175.63 834.99 1156.14 825.75 1137.70 Z" />
<path fill="#f9ccaf" stroke="#f9ccaf" stroke-width="0.09375" opacity="1.00" d=" M 573.20 1144.97 C 574.31 1145.06 575.42 1145.17 576.53 1145.30 C 582.88 1147.04 589.27 1148.68 595.73 1149.95 C 600.34 1151.00 604.91 1152.34 609.66 1152.68 C 612.82 1154.58 616.54 1155.05 620.09 1155.85 C 638.10 1159.64 656.33 1163.22 674.82 1162.84 C 676.44 1162.86 678.07 1162.94 679.69 1163.13 C 667.18 1210.81 657.75 1259.98 635.40 1304.36 C 626.00 1322.95 617.70 1342.17 606.85 1360.00 L 463.92 1360.00 C 474.39 1338.71 488.68 1319.65 502.44 1300.43 C 513.47 1285.30 525.82 1270.89 533.95 1253.88 C 551.45 1219.26 558.21 1180.58 573.20 1144.97 Z" />
</g>
<g id="#d6a585ff">
<path fill="#d6a585" stroke="#d6a585" stroke-width="0.09375" opacity="1.00" d=" M 773.95 109.51 C 785.70 105.27 798.80 104.31 810.82 108.05 C 817.00 110.05 823.45 112.17 828.33 116.67 C 832.29 120.28 836.07 124.09 839.87 127.88 C 842.13 134.03 846.30 139.23 848.82 145.28 C 854.28 157.30 858.03 170.05 861.14 182.86 C 862.42 188.28 862.54 193.92 864.20 199.26 C 864.52 203.01 864.60 206.78 864.22 210.52 C 864.69 210.14 865.18 209.77 865.68 209.40 C 866.60 217.91 865.86 226.57 867.86 234.95 C 868.91 243.19 868.17 251.55 868.74 259.83 C 869.19 263.54 869.70 267.26 869.60 271.01 C 869.47 280.35 869.67 289.70 869.48 299.03 C 868.27 308.49 868.36 318.04 867.68 327.54 C 867.20 327.20 866.72 326.86 866.26 326.52 C 867.04 334.38 864.29 341.95 863.27 349.66 C 861.45 355.58 859.92 361.64 857.39 367.32 C 854.32 375.76 851.31 384.49 845.72 391.65 C 842.94 395.56 840.72 399.88 837.43 403.41 C 831.47 409.86 825.38 417.03 816.69 419.73 C 812.36 420.94 808.44 423.37 803.98 424.18 C 795.72 425.82 787.55 428.85 779.02 428.30 C 780.17 428.69 781.33 429.12 782.51 429.51 C 775.62 429.61 768.96 431.50 762.21 432.63 C 752.59 435.19 741.80 438.37 736.45 447.56 C 736.07 438.37 740.24 429.75 745.47 422.45 C 756.00 409.00 770.13 398.10 777.17 382.15 C 779.32 376.71 781.80 371.15 781.91 365.21 C 779.88 364.73 777.83 364.46 775.79 364.21 C 785.68 364.69 796.59 365.14 805.02 359.02 C 811.76 353.92 817.27 346.83 820.09 338.84 C 814.56 340.59 809.66 346.52 803.39 343.65 C 801.09 339.75 803.34 334.71 801.21 330.74 C 799.15 328.05 795.09 327.60 792.23 329.19 C 787.83 331.62 785.79 336.75 781.38 339.17 C 778.01 325.63 774.26 312.18 770.05 298.88 C 768.45 293.61 764.32 289.05 764.36 283.37 C 765.73 280.56 769.17 280.14 771.95 279.92 C 782.60 279.29 793.29 280.10 803.93 279.28 C 808.53 278.87 813.50 279.00 817.60 276.57 C 820.30 274.14 819.79 270.00 819.40 266.75 C 817.07 252.09 807.59 240.11 802.48 226.47 C 789.63 191.37 793.44 152.44 779.33 117.68 C 777.91 114.78 777.50 110.59 773.95 109.51 M 811.34 222.11 L 811.45 222.72 C 822.93 227.95 835.22 232.28 847.92 232.83 C 843.43 228.03 838.51 223.38 832.61 220.37 C 825.81 216.99 817.87 219.11 811.34 222.11 Z" />
<path fill="#d6a585" stroke="#d6a585" stroke-width="0.09375" opacity="1.00" d=" M 596.39 283.44 C 600.82 283.01 605.32 282.82 609.75 283.33 C 611.72 284.68 612.91 286.84 614.32 288.72 C 618.24 294.24 621.96 300.22 622.97 307.04 C 623.43 309.88 622.28 313.27 619.41 314.36 C 615.20 315.92 610.56 314.90 606.39 313.67 C 597.26 310.96 588.79 305.65 582.82 298.18 C 580.95 295.88 580.29 292.32 581.76 289.69 C 585.29 285.39 591.13 284.09 596.39 283.44 Z" />
</g>
<g id="#74b1beff">
<path fill="#74b1be" stroke="#74b1be" stroke-width="0.09375" opacity="1.00" d=" M 839.87 127.88 C 840.85 128.72 841.87 129.55 842.88 130.39 C 843.69 132.95 844.88 135.37 846.37 137.61 C 854.14 151.31 858.43 166.58 862.24 181.76 C 863.72 187.47 864.59 193.35 864.20 199.26 C 862.54 193.92 862.42 188.28 861.14 182.86 C 858.03 170.05 854.28 157.30 848.82 145.28 C 846.30 139.23 842.13 134.03 839.87 127.88 Z" />
</g>
<g id="#81d1e5ff">
<path fill="#81d1e5" stroke="#81d1e5" stroke-width="0.09375" opacity="1.00" d=" M 1762.01 218.92 C 1762.91 215.79 1763.90 212.61 1765.80 209.92 C 1765.89 215.68 1765.68 221.68 1764.00 227.21 C 1763.99 224.25 1764.01 221.29 1763.87 218.33 C 1763.41 218.48 1762.47 218.77 1762.01 218.92 Z" />
</g>
<g id="#020101ff">
<path fill="#020101" stroke="#020101" stroke-width="0.09375" opacity="1.00" d=" M 700.27 224.13 C 710.85 218.75 723.09 217.76 734.77 218.56 C 740.19 219.09 745.69 219.92 750.76 222.05 L 750.54 222.68 C 730.78 230.30 710.15 237.40 688.69 236.94 C 690.21 231.13 695.16 226.87 700.27 224.13 Z" />
</g>
<g id="#2bc9fdff">
<path fill="#2bc9fd" stroke="#2bc9fd" stroke-width="0.09375" opacity="1.00" d=" M 1762.01 218.92 C 1762.47 218.77 1763.41 218.48 1763.87 218.33 C 1764.01 221.29 1763.99 224.25 1764.00 227.21 C 1761.69 247.84 1757.25 268.21 1752.38 288.38 C 1741.96 329.16 1728.08 369.24 1708.78 406.71 C 1685.78 452.75 1654.67 494.94 1615.95 528.98 C 1565.89 573.89 1503.61 603.55 1439.00 620.96 C 1419.11 626.22 1398.99 630.67 1378.65 633.80 C 1370.20 635.75 1361.51 636.09 1352.95 637.32 C 1334.33 639.15 1315.62 641.28 1296.91 640.14 C 1297.28 638.69 1299.04 638.73 1300.19 638.28 C 1342.01 627.90 1384.19 618.65 1425.13 605.09 C 1466.12 591.62 1506.21 574.73 1543.00 552.02 C 1558.97 541.95 1574.52 531.15 1589.00 519.01 C 1594.50 514.87 1598.99 509.62 1604.47 505.47 C 1610.88 499.89 1616.67 493.66 1622.68 487.67 C 1626.22 484.20 1628.75 479.83 1632.55 476.60 C 1658.29 447.93 1679.36 415.28 1697.17 381.18 C 1724.37 329.50 1742.91 273.93 1762.01 218.92 Z" />
</g>
<g id="#030101ff">
<path fill="#030101" stroke="#030101" stroke-width="0.09375" opacity="1.00" d=" M 811.34 222.11 C 817.87 219.11 825.81 216.99 832.61 220.37 C 838.51 223.38 843.43 228.03 847.92 232.83 C 835.22 232.28 822.93 227.95 811.45 222.72 L 811.34 222.11 Z" />
</g>
<g id="#2bcafeff">
<path fill="#2bcafe" stroke="#2bcafe" stroke-width="0.09375" opacity="1.00" d=" M 1343.38 288.43 C 1354.47 286.69 1365.67 289.02 1376.06 292.89 C 1382.82 296.43 1389.87 301.19 1392.49 308.73 C 1395.05 316.25 1390.62 324.17 1384.79 328.79 C 1374.98 335.51 1362.91 339.11 1351.00 338.36 C 1341.75 338.79 1332.78 335.58 1324.71 331.34 C 1319.13 327.54 1313.49 322.47 1312.36 315.47 C 1310.93 309.70 1313.95 303.91 1317.79 299.79 C 1325.01 293.65 1334.06 289.94 1343.38 288.43 Z" />
</g>
<g id="#e00c5eff">
<path fill="#e00c5e" stroke="#e00c5e" stroke-width="0.09375" opacity="1.00" d=" M 763.91 328.92 C 767.04 327.35 771.23 326.73 774.33 328.66 C 777.09 331.66 776.88 336.13 778.36 339.76 C 779.38 339.68 780.39 339.48 781.38 339.17 C 785.79 336.75 787.83 331.62 792.23 329.19 C 795.09 327.60 799.15 328.05 801.21 330.74 C 803.34 334.71 801.09 339.75 803.39 343.65 C 809.66 346.52 814.56 340.59 820.09 338.84 C 817.27 346.83 811.76 353.92 805.02 359.02 C 796.59 365.14 785.68 364.69 775.79 364.21 C 758.41 361.77 740.73 361.40 723.57 357.49 C 720.05 356.58 716.37 355.74 713.40 353.55 C 713.33 352.96 713.20 351.78 713.13 351.19 C 718.63 349.45 724.52 350.05 730.18 349.23 C 736.82 348.31 743.74 348.43 750.08 346.04 C 757.56 342.98 756.96 332.62 763.91 328.92 Z" />
</g>
<g id="#9ccbd2ff">
<path fill="#9ccbd2" stroke="#9ccbd2" stroke-width="0.09375" opacity="1.00" d=" M 733.27 474.03 C 733.56 465.43 732.72 456.30 736.30 448.25 C 735.84 452.78 735.98 457.36 735.36 461.89 C 733.78 470.50 734.39 479.30 733.71 488.01 C 733.38 487.95 732.73 487.82 732.40 487.76 C 731.82 483.16 733.16 478.62 733.27 474.03 Z" />
</g>
<g id="#57c69dff">
<path fill="#57c69d" stroke="#57c69d" stroke-width="0.09375" opacity="1.00" d=" M 657.34 479.88 C 657.95 482.20 658.09 484.61 658.05 487.01 C 658.04 487.40 658.00 488.17 657.98 488.56 C 650.82 488.13 643.82 489.69 636.97 491.57 C 628.70 492.59 621.20 496.43 613.14 498.34 L 612.07 498.08 C 614.00 496.96 616.01 495.95 618.14 495.22 C 630.71 491.09 643.59 487.35 656.89 486.80 C 657.45 484.53 657.19 482.18 657.34 479.88 Z" />
</g>
<g id="#8ed97cff">
<path fill="#8ed97c" stroke="#8ed97c" stroke-width="0.09375" opacity="1.00" d=" M 732.40 487.76 C 732.73 487.82 733.38 487.95 733.71 488.01 C 743.86 489.88 754.48 488.12 764.39 491.38 C 771.63 493.51 779.34 494.23 786.17 497.59 L 785.10 497.97 C 776.59 496.29 768.43 493.03 759.74 492.19 C 750.82 490.39 741.71 490.42 732.67 489.67 C 732.61 489.19 732.47 488.24 732.40 487.76 Z" />
</g>
<g id="#ffeb01ff">
<path fill="#ffeb01" stroke="#ffeb01" stroke-width="0.09375" opacity="1.00" d=" M 636.97 491.57 C 643.82 489.69 650.82 488.13 657.98 488.56 C 664.25 488.76 670.12 490.99 676.17 492.39 C 676.07 492.86 675.96 493.33 675.86 493.81 C 684.59 495.59 692.99 499.40 702.02 499.42 C 706.84 499.09 711.59 498.13 716.42 497.81 C 716.16 497.34 715.91 496.87 715.68 496.41 C 721.79 495.45 727.37 492.76 732.67 489.67 C 741.71 490.42 750.82 490.39 759.74 492.19 C 768.43 493.03 776.59 496.29 785.10 497.97 C 794.66 501.97 804.38 505.62 813.53 510.55 C 828.97 518.76 843.55 528.43 858.40 537.63 C 863.73 541.02 868.85 544.93 874.89 547.02 C 879.24 550.34 884.78 551.23 889.82 553.07 C 905.93 557.77 922.58 560.31 938.65 565.18 C 943.28 566.56 948.27 567.69 951.96 571.03 C 956.15 574.80 957.91 580.53 958.29 586.00 C 958.63 591.88 958.65 597.80 957.83 603.65 C 957.11 608.81 957.53 614.02 957.17 619.20 C 955.98 624.61 953.22 629.74 953.73 635.45 C 953.20 635.13 952.68 634.82 952.17 634.52 C 951.96 637.15 951.90 639.79 951.78 642.43 C 951.24 642.13 950.71 641.84 950.20 641.55 C 950.00 644.18 949.92 646.82 949.78 649.46 C 949.28 649.15 948.80 648.85 948.33 648.57 C 948.02 653.78 946.05 658.64 944.63 663.60 C 941.77 670.15 940.03 677.09 937.82 683.87 C 936.63 686.98 936.37 690.76 933.97 693.22 C 926.13 688.88 918.45 684.15 910.16 680.69 C 895.97 674.39 881.14 669.62 866.10 665.81 C 859.38 664.22 852.80 661.99 845.92 661.14 C 842.19 659.89 838.46 658.15 834.44 658.40 C 834.35 659.29 834.34 660.20 834.39 661.12 C 834.77 661.24 835.53 661.50 835.91 661.62 C 838.64 668.05 841.79 674.28 844.19 680.86 C 848.08 688.40 850.54 696.54 853.46 704.49 C 855.46 710.34 857.46 716.19 859.06 722.16 C 863.18 734.45 866.31 747.03 869.28 759.64 C 872.43 771.53 873.94 783.77 877.04 795.67 C 879.44 808.09 881.32 820.60 883.67 833.03 C 885.49 841.63 886.19 850.41 887.91 859.03 C 888.43 867.02 891.23 874.58 892.43 882.46 C 894.77 895.25 899.06 907.63 900.85 920.52 C 901.95 927.04 900.87 933.78 898.96 940.04 C 894.75 948.21 885.94 953.24 877.08 954.70 L 876.22 954.87 C 868.27 956.19 860.71 959.19 852.76 960.58 C 820.40 966.31 788.04 972.26 755.43 976.31 C 748.71 977.69 741.82 977.17 735.06 978.19 C 723.78 979.84 712.35 979.17 700.99 979.34 C 690.67 979.31 680.34 979.46 670.02 979.13 C 663.64 978.89 657.16 979.92 650.89 978.30 C 644.42 976.73 637.71 977.57 631.18 976.54 C 624.50 976.01 617.78 975.87 611.25 974.23 C 603.08 972.35 594.66 971.05 586.96 967.61 C 583.94 966.31 581.20 964.47 578.79 962.25 C 592.04 961.63 605.35 961.15 618.42 958.74 C 641.04 954.99 663.01 947.63 683.59 937.57 C 697.93 929.62 712.32 921.47 724.99 910.99 C 731.20 904.18 738.61 898.64 744.89 891.90 C 751.33 885.53 757.21 878.59 762.48 871.23 C 772.47 858.19 780.72 843.88 787.96 829.16 C 792.37 817.68 797.61 806.44 800.43 794.41 C 804.23 778.54 807.87 762.41 807.59 746.00 C 807.49 730.40 808.42 714.67 805.66 699.23 C 801.87 677.81 796.18 656.46 786.09 637.07 C 783.31 631.31 781.31 625.08 777.28 620.03 C 773.11 614.31 770.04 607.89 765.74 602.26 C 760.41 594.66 754.30 587.66 748.34 580.55 C 726.21 557.32 699.77 537.90 670.07 525.52 C 668.67 524.95 667.26 524.42 665.87 523.88 C 643.26 514.47 618.92 509.65 594.56 507.72 C 600.20 503.50 607.32 502.20 613.14 498.34 C 621.20 496.43 628.70 492.59 636.97 491.57 Z" />
</g>
<g id="#29b5e2ff">
<path fill="#29b5e2" stroke="#29b5e2" stroke-width="0.09375" opacity="1.00" d=" M 1332.87 491.41 C 1344.27 490.91 1355.70 490.86 1367.11 491.41 C 1360.53 492.82 1353.69 492.15 1347.00 492.34 C 1342.29 492.14 1337.44 492.72 1332.87 491.41 Z" />
</g>
<g id="#7cd780ff">
<path fill="#7cd780" stroke="#7cd780" stroke-width="0.09375" opacity="1.00" d=" M 592.53 507.58 C 598.29 503.09 605.32 500.66 612.07 498.08 L 613.14 498.34 C 607.32 502.20 600.20 503.50 594.56 507.72 C 594.05 507.68 593.04 507.61 592.53 507.58 Z" />
</g>
<g id="#85d67bff">
<path fill="#85d67b" stroke="#85d67b" stroke-width="0.09375" opacity="1.00" d=" M 785.10 497.97 L 786.17 497.59 C 795.23 499.80 803.40 504.45 811.88 508.16 C 818.21 510.84 823.81 514.90 829.82 518.21 C 845.30 527.62 860.54 537.42 875.91 547.00 L 874.89 547.02 C 868.85 544.93 863.73 541.02 858.40 537.63 C 843.55 528.43 828.97 518.76 813.53 510.55 C 804.38 505.62 794.66 501.97 785.10 497.97 Z" />
</g>
<g id="#52cf37ff">
<path fill="#52cf37" stroke="#52cf37" stroke-width="0.09375" opacity="1.00" d=" M 548.15 509.87 C 551.72 508.94 555.24 507.88 559.00 508.29 C 570.15 507.34 581.34 507.64 592.53 507.58 C 593.04 507.61 594.05 507.68 594.56 507.72 C 618.92 509.65 643.26 514.47 665.87 523.88 C 665.28 530.98 668.52 537.54 669.50 544.45 C 671.74 553.12 672.56 562.07 672.86 571.00 C 673.87 581.67 673.07 592.40 671.94 603.03 C 671.28 609.83 669.14 616.35 667.95 623.06 C 662.33 624.32 656.15 622.41 650.69 624.84 C 646.86 626.87 643.68 629.89 640.38 632.65 C 630.43 621.90 620.19 611.32 608.44 602.50 C 595.03 591.89 580.63 582.55 565.55 574.50 C 538.51 560.12 509.21 549.43 478.74 545.53 C 471.48 544.48 464.13 544.88 456.86 544.10 C 460.97 541.30 465.66 539.50 469.71 536.61 C 474.93 532.96 480.99 530.83 486.45 527.62 C 491.92 525.19 497.23 521.88 503.39 521.70 C 503.11 521.20 502.84 520.71 502.58 520.23 C 505.00 520.01 507.42 519.85 509.86 519.69 C 508.96 519.23 508.06 518.78 507.18 518.33 C 510.07 518.17 512.96 517.91 515.86 517.66 C 514.96 517.19 514.07 516.75 513.18 516.30 C 517.85 516.69 522.40 515.42 526.56 513.40 C 533.77 512.28 540.80 509.99 548.15 509.87 Z" />
<path fill="#52cf37" stroke="#52cf37" stroke-width="0.09375" opacity="1.00" d=" M 675.01 678.19 C 678.26 677.55 681.36 676.32 684.47 675.21 C 688.99 680.29 692.39 686.20 696.24 691.78 C 714.35 718.67 730.71 746.87 743.15 776.85 C 752.25 799.34 759.54 822.77 762.12 846.96 C 762.57 855.04 762.42 863.14 762.48 871.23 C 757.21 878.59 751.33 885.53 744.89 891.90 C 738.61 898.64 731.20 904.18 724.99 910.99 C 712.32 921.47 697.93 929.62 683.59 937.57 C 663.01 947.63 641.04 954.99 618.42 958.74 C 605.35 961.15 592.04 961.63 578.79 962.25 C 572.94 961.47 567.02 961.91 561.16 961.52 C 555.61 959.09 549.33 961.08 543.69 959.05 C 539.25 957.51 534.39 958.05 529.94 956.47 C 518.80 953.50 507.67 950.39 496.98 946.01 C 487.26 941.99 477.42 938.01 468.58 932.23 C 475.12 928.89 482.28 927.03 488.86 923.79 C 514.25 912.38 537.32 896.42 558.57 878.55 C 564.26 873.56 569.74 868.33 575.47 863.39 C 581.76 858.03 586.87 851.49 592.42 845.42 C 614.35 821.05 633.07 793.71 647.00 764.00 C 651.67 753.02 656.09 741.90 659.23 730.36 C 660.63 725.25 662.36 720.12 662.18 714.75 C 662.35 710.77 663.49 706.95 664.16 703.06 C 664.94 694.97 664.12 686.81 664.72 678.72 C 668.13 678.33 671.60 678.73 675.01 678.19 Z" />
</g>
<g id="#bd4e0aff">
<path fill="#bd4e0a" stroke="#bd4e0a" stroke-width="0.09375" opacity="1.00" d=" M 665.87 523.88 C 667.26 524.42 668.67 524.95 670.07 525.52 C 669.17 526.00 668.31 526.54 667.48 527.13 C 669.16 538.00 672.63 548.59 673.33 559.63 C 675.36 568.29 674.51 577.20 674.69 586.00 C 674.70 589.75 674.81 593.52 674.20 597.24 C 672.85 604.84 672.24 612.60 669.90 620.00 C 669.63 621.22 668.81 622.19 667.95 623.06 C 669.14 616.35 671.28 609.83 671.94 603.03 C 673.07 592.40 673.87 581.67 672.86 571.00 C 672.56 562.07 671.74 553.12 669.50 544.45 C 668.52 537.54 665.28 530.98 665.87 523.88 Z" />
</g>
<g id="#ff1b00ff">
<path fill="#ff1b00" stroke="#ff1b00" stroke-width="0.09375" opacity="1.00" d=" M 667.48 527.13 C 668.31 526.54 669.17 526.00 670.07 525.52 C 699.77 537.90 726.21 557.32 748.34 580.55 C 754.30 587.66 760.41 594.66 765.74 602.26 C 770.04 607.89 773.11 614.31 777.28 620.03 C 767.87 630.22 755.31 636.89 742.44 641.65 C 727.15 647.36 710.74 650.16 694.42 649.51 C 694.28 654.06 694.75 658.78 693.03 663.13 C 691.53 667.99 687.57 671.38 684.47 675.21 C 681.36 676.32 678.26 677.55 675.01 678.19 C 671.60 678.73 668.13 678.33 664.72 678.72 C 664.12 686.81 664.94 694.97 664.16 703.06 C 663.49 706.95 662.35 710.77 662.18 714.75 C 659.52 723.09 657.97 731.75 655.05 740.02 C 641.22 780.52 616.88 816.73 588.16 848.18 C 584.15 853.02 579.83 857.65 574.45 861.01 C 573.85 856.53 569.07 855.46 565.36 854.79 C 553.04 853.02 540.56 854.03 528.18 853.62 C 526.68 853.35 524.55 853.50 523.75 851.94 C 524.78 848.27 528.71 846.62 531.57 844.56 C 550.60 833.23 570.93 824.33 590.98 814.99 C 594.15 813.49 597.44 812.16 600.24 810.01 C 591.87 803.91 581.27 801.32 571.00 801.51 C 558.38 801.49 546.22 805.40 534.39 809.38 C 529.64 810.91 525.07 813.10 520.12 813.90 C 524.85 800.55 537.98 792.94 549.99 786.98 C 559.45 781.85 569.98 778.52 578.58 771.94 C 572.39 769.42 565.56 769.58 559.02 768.82 C 542.05 768.09 524.62 770.69 509.28 778.27 C 504.91 780.39 501.02 783.34 496.82 785.76 C 509.08 769.76 523.31 755.26 534.41 738.37 C 536.04 735.68 538.02 732.79 537.65 729.49 C 531.23 725.79 523.18 725.72 516.33 728.25 C 506.63 731.57 498.83 738.57 491.67 745.65 C 482.70 754.79 474.89 764.98 467.12 775.14 C 463.57 779.53 460.52 784.45 456.07 788.03 C 454.93 771.25 457.02 754.05 452.32 737.66 C 451.75 735.96 450.47 733.59 448.31 734.29 C 445.10 736.62 443.67 740.54 442.01 744.00 C 437.12 755.65 433.48 767.79 429.84 779.88 C 426.74 789.90 424.39 800.24 419.72 809.71 C 412.01 826.62 400.84 841.57 390.74 857.08 C 389.48 855.72 388.20 854.37 387.19 852.83 C 377.93 837.28 370.16 820.78 364.67 803.51 C 363.09 797.96 362.02 792.26 360.04 786.82 C 357.26 778.14 356.52 769.00 355.44 760.00 C 354.03 750.06 354.62 740.00 354.50 730.01 C 354.34 718.93 354.96 707.78 357.34 696.94 C 365.19 698.06 372.52 701.25 380.02 703.66 C 400.43 710.08 420.38 718.69 441.79 721.21 C 477.37 724.19 513.51 725.17 548.73 718.43 C 569.44 714.39 589.66 707.43 608.03 696.97 C 621.27 688.98 634.23 680.08 645.04 668.95 C 641.97 664.19 638.09 659.71 637.14 653.92 C 635.06 646.66 637.23 639.22 640.38 632.65 C 643.68 629.89 646.86 626.87 650.69 624.84 C 656.15 622.41 662.33 624.32 667.95 623.06 C 668.81 622.19 669.63 621.22 669.90 620.00 C 672.24 612.60 672.85 604.84 674.20 597.24 C 674.81 593.52 674.70 589.75 674.69 586.00 C 674.51 577.20 675.36 568.29 673.33 559.63 C 672.63 548.59 669.16 538.00 667.48 527.13 Z" />
</g>
<g id="#ffffffff">
<path fill="#ffffff" stroke="#ffffff" stroke-width="0.09375" opacity="1.00" d=" M 436.15 559.24 C 442.88 553.96 449.78 548.90 456.86 544.10 C 464.13 544.88 471.48 544.48 478.74 545.53 C 509.21 549.43 538.51 560.12 565.55 574.50 C 580.63 582.55 595.03 591.89 608.44 602.50 C 620.19 611.32 630.43 621.90 640.38 632.65 C 637.23 639.22 635.06 646.66 637.14 653.92 C 638.09 659.71 641.97 664.19 645.04 668.95 C 634.23 680.08 621.27 688.98 608.03 696.97 C 589.66 707.43 569.44 714.39 548.73 718.43 C 513.51 725.17 477.37 724.19 441.79 721.21 C 420.38 718.69 400.43 710.08 380.02 703.66 C 372.52 701.25 365.19 698.06 357.34 696.94 C 357.19 695.63 357.06 694.33 356.95 693.04 C 358.89 686.89 359.58 680.43 361.49 674.28 C 365.46 661.47 369.71 648.70 375.66 636.65 C 389.92 606.86 410.92 580.48 436.15 559.24 Z" />
<path fill="#ffffff" stroke="#ffffff" stroke-width="0.09375" opacity="1.00" d=" M 777.28 620.03 C 781.31 625.08 783.31 631.31 786.09 637.07 C 796.18 656.46 801.87 677.81 805.66 699.23 C 808.42 714.67 807.49 730.40 807.59 746.00 C 807.87 762.41 804.23 778.54 800.43 794.41 C 797.61 806.44 792.37 817.68 787.96 829.16 C 780.72 843.88 772.47 858.19 762.48 871.23 C 762.42 863.14 762.57 855.04 762.12 846.96 C 759.54 822.77 752.25 799.34 743.15 776.85 C 730.71 746.87 714.35 718.67 696.24 691.78 C 692.39 686.20 688.99 680.29 684.47 675.21 C 687.57 671.38 691.53 667.99 693.03 663.13 C 694.75 658.78 694.28 654.06 694.42 649.51 C 710.74 650.16 727.15 647.36 742.44 641.65 C 755.31 636.89 767.87 630.22 777.28 620.03 Z" />
<path fill="#ffffff" stroke="#ffffff" stroke-width="0.09375" opacity="1.00" d=" M 426.61 933.62 C 433.75 928.99 440.73 924.12 447.94 919.60 C 453.71 922.98 459.22 926.79 465.00 930.16 C 466.18 930.86 467.38 931.54 468.58 932.23 C 477.42 938.01 487.26 941.99 496.98 946.01 C 507.67 950.39 518.80 953.50 529.94 956.47 C 520.89 965.01 510.78 972.33 501.00 980.00 C 463.47 1008.17 422.28 1031.19 379.62 1050.59 C 331.08 1072.64 280.57 1090.24 229.11 1104.09 C 178.92 1117.67 127.78 1127.69 76.21 1134.35 C 50.87 1137.13 25.52 1140.60 0.00 1140.76 L 0.00 1108.90 C 15.97 1107.55 31.84 1105.19 47.77 1103.42 C 60.26 1100.96 72.74 1098.41 85.04 1095.11 C 138.08 1081.52 188.54 1059.11 235.93 1031.89 C 281.86 1005.20 325.27 974.27 366.39 940.67 C 366.70 940.72 367.31 940.81 367.62 940.86 C 369.65 946.92 375.62 951.02 381.97 951.14 C 390.86 951.32 399.42 948.07 407.32 944.26 C 413.81 940.83 420.44 937.62 426.61 933.62 Z" />
</g>
<g id="#a9e574ff">
<path fill="#a9e574" stroke="#a9e574" stroke-width="0.09375" opacity="1.00" d=" M 874.89 547.02 L 875.91 547.00 C 881.48 548.75 886.92 550.92 892.61 552.33 C 908.18 556.69 924.31 558.93 939.67 564.09 C 945.80 565.94 952.75 567.86 956.20 573.80 C 962.61 584.18 960.19 597.03 959.44 608.52 C 957.46 611.73 957.93 615.64 957.17 619.20 C 957.53 614.02 957.11 608.81 957.83 603.65 C 958.65 597.80 958.63 591.88 958.29 586.00 C 957.91 580.53 956.15 574.80 951.96 571.03 C 948.27 567.69 943.28 566.56 938.65 565.18 C 922.58 560.31 905.93 557.77 889.82 553.07 C 884.78 551.23 879.24 550.34 874.89 547.02 Z" />
</g>
<g id="#d4861aff">
<path fill="#d4861a" stroke="#d4861a" stroke-width="0.09375" opacity="1.00" d=" M 1811.37 603.40 C 1815.66 600.22 1820.70 603.58 1824.90 605.20 C 1829.34 606.70 1831.74 611.00 1834.17 614.70 C 1838.18 621.03 1839.44 629.79 1835.22 636.33 C 1833.42 639.87 1829.59 641.47 1826.36 643.39 C 1817.22 648.12 1809.98 655.80 1804.12 664.14 C 1798.82 670.72 1794.38 677.96 1790.43 685.42 C 1786.96 693.30 1782.72 700.87 1780.13 709.12 C 1776.63 718.49 1773.63 728.12 1772.37 738.07 C 1771.63 748.00 1771.12 759.07 1777.62 767.36 C 1780.32 769.50 1783.39 771.65 1786.98 771.83 C 1792.37 772.25 1797.59 773.78 1802.83 775.07 C 1808.57 776.49 1813.88 779.71 1817.81 784.14 C 1820.81 788.50 1820.23 794.43 1818.11 799.06 C 1813.54 808.72 1808.28 818.17 1801.33 826.34 C 1798.28 830.05 1794.24 832.93 1789.82 834.77 C 1782.86 837.02 1775.75 832.78 1771.89 827.13 C 1768.39 821.78 1764.71 816.46 1762.53 810.42 C 1757.85 798.32 1754.04 785.85 1751.74 773.07 C 1750.18 763.75 1747.63 754.62 1746.51 745.23 C 1745.67 739.76 1745.06 734.15 1742.92 729.00 C 1735.02 711.99 1727.88 694.65 1720.73 677.31 C 1717.67 668.53 1714.05 659.84 1712.45 650.64 C 1712.07 647.19 1711.33 642.86 1714.31 640.30 C 1720.54 639.38 1725.36 644.63 1730.04 647.96 C 1736.95 652.86 1742.42 659.45 1749.14 664.58 C 1755.17 663.71 1760.94 660.49 1765.20 656.18 C 1768.67 649.32 1767.16 641.24 1768.79 633.90 C 1769.81 629.01 1770.25 622.86 1774.93 619.95 C 1781.73 616.72 1789.88 619.37 1796.53 615.48 C 1802.72 613.11 1806.35 607.34 1811.37 603.40 Z" />
<path fill="#d4861a" stroke="#d4861a" stroke-width="0.09375" opacity="1.00" d=" M 1201.86 808.80 C 1210.51 806.29 1219.09 803.40 1228.01 801.94 C 1229.53 801.68 1231.15 801.68 1232.64 802.28 C 1234.05 806.48 1233.51 811.27 1235.83 815.18 C 1238.46 811.42 1242.28 808.31 1247.07 808.19 C 1252.68 808.24 1258.50 809.62 1263.20 812.80 C 1265.51 816.01 1264.64 820.50 1262.56 823.59 C 1257.75 830.13 1251.48 835.83 1243.90 838.92 C 1238.55 841.17 1232.67 841.13 1227.04 842.07 C 1195.67 847.15 1163.85 852.58 1134.69 865.72 C 1127.29 870.04 1119.16 873.86 1113.88 880.88 C 1110.83 885.15 1107.73 890.14 1108.40 895.63 C 1108.96 898.21 1109.88 901.36 1112.66 902.35 C 1119.52 905.36 1127.31 904.34 1134.35 906.72 C 1138.80 908.25 1142.56 912.17 1142.91 917.02 C 1144.33 924.24 1139.79 931.14 1134.02 935.05 C 1127.58 939.19 1120.54 942.66 1112.92 943.92 C 1104.79 945.39 1095.94 946.11 1088.16 942.83 C 1081.14 938.80 1074.09 932.80 1072.61 924.43 C 1070.82 914.89 1074.56 905.55 1074.89 896.05 C 1075.76 889.98 1074.48 882.53 1068.70 879.28 C 1066.46 878.00 1064.95 875.60 1064.83 873.04 C 1064.57 866.49 1068.22 860.21 1073.57 856.57 C 1079.25 852.84 1084.77 848.77 1091.02 845.99 C 1100.66 841.45 1110.57 837.50 1120.43 833.46 C 1136.48 828.92 1152.13 823.06 1168.35 819.09 C 1179.36 815.17 1190.56 811.77 1201.86 808.80 Z" />
<path fill="#d4861a" stroke="#d4861a" stroke-width="0.09375" opacity="1.00" d=" M 1618.32 907.29 C 1620.82 906.64 1623.41 903.50 1626.01 904.96 C 1631.18 909.95 1635.08 916.10 1638.83 922.19 C 1644.13 931.11 1643.91 942.06 1641.87 951.92 C 1640.42 962.31 1637.05 972.95 1629.80 980.81 C 1625.70 985.40 1620.02 988.62 1613.99 989.82 C 1601.53 991.14 1589.88 984.16 1581.71 975.29 C 1576.81 971.09 1573.79 965.29 1569.26 960.78 C 1565.42 956.94 1561.85 952.62 1556.96 950.07 C 1551.09 946.77 1543.79 947.47 1537.70 949.76 C 1520.83 956.34 1506.68 969.62 1498.97 985.99 C 1491.32 1000.50 1487.53 1016.76 1478.70 1030.69 C 1474.27 1037.34 1469.67 1045.07 1461.38 1047.24 C 1455.30 1048.36 1448.29 1048.68 1442.99 1044.96 C 1440.50 1043.37 1438.95 1040.64 1438.18 1037.86 C 1437.32 1032.89 1440.44 1028.13 1444.42 1025.42 C 1450.32 1020.65 1457.62 1018.31 1464.53 1015.46 C 1469.92 1013.17 1473.12 1007.58 1474.24 1002.07 C 1474.16 1001.59 1474.00 1000.63 1473.92 1000.15 C 1466.81 1000.00 1460.11 1003.62 1453.04 1003.17 C 1452.70 1002.87 1452.03 1002.25 1451.70 1001.95 C 1453.61 997.28 1458.42 994.30 1460.54 989.66 C 1461.24 987.15 1461.49 983.52 1458.34 982.72 C 1449.93 979.45 1440.72 982.21 1432.00 982.15 C 1428.56 981.98 1424.57 982.69 1421.73 980.30 C 1419.18 977.18 1421.58 973.29 1423.39 970.49 C 1425.34 966.71 1429.18 964.37 1433.14 963.16 C 1444.25 961.14 1455.08 966.36 1466.20 965.32 C 1467.80 965.06 1469.57 964.91 1470.95 963.95 C 1477.02 957.22 1480.90 948.98 1485.15 941.08 C 1488.82 934.04 1495.00 928.61 1502.05 925.10 C 1512.08 920.40 1523.11 918.45 1534.03 917.19 C 1539.99 916.26 1546.03 916.05 1552.06 915.93 C 1574.24 914.27 1597.09 914.93 1618.32 907.29 Z" />
<path fill="#d4861a" stroke="#d4861a" stroke-width="0.09375" opacity="1.00" d=" M 375.37 1169.41 C 380.25 1167.89 384.82 1171.05 389.17 1172.82 C 397.36 1176.20 404.81 1181.00 412.25 1185.74 C 413.52 1186.56 414.53 1187.72 415.34 1189.01 C 413.08 1193.12 407.82 1193.04 403.80 1193.95 C 394.29 1195.89 384.59 1197.24 375.42 1200.53 C 372.06 1201.80 368.64 1203.45 366.34 1206.31 C 359.68 1215.38 356.42 1226.31 353.06 1236.90 C 347.00 1256.80 342.64 1277.18 335.93 1296.89 C 331.90 1306.76 329.03 1317.19 323.40 1326.35 C 319.83 1333.70 313.74 1339.75 306.39 1343.31 C 300.44 1345.16 293.56 1346.01 287.79 1343.16 C 281.77 1338.45 280.02 1330.28 280.06 1323.01 C 279.62 1316.05 281.22 1309.14 280.61 1302.20 C 278.02 1301.96 276.48 1304.24 274.84 1305.84 C 271.89 1308.99 268.35 1311.56 264.60 1313.70 C 262.93 1314.80 260.03 1314.72 259.49 1312.41 C 257.56 1306.12 259.60 1299.50 260.39 1293.19 C 262.08 1285.72 262.62 1277.96 261.47 1270.38 C 260.54 1268.75 259.03 1267.06 257.01 1267.10 C 249.39 1266.71 241.70 1268.10 234.12 1266.96 C 231.27 1266.34 227.53 1263.62 229.20 1260.34 C 231.80 1255.48 236.34 1251.92 240.81 1248.86 C 254.05 1243.01 268.80 1242.69 283.03 1242.67 C 296.50 1241.71 310.39 1242.78 323.38 1238.39 C 329.13 1236.25 334.86 1233.61 339.47 1229.47 C 342.54 1226.82 344.74 1223.37 347.12 1220.14 C 351.76 1213.89 352.17 1205.34 349.90 1198.11 C 348.51 1193.69 347.00 1188.90 348.38 1184.30 C 349.61 1180.75 353.13 1178.90 356.17 1177.14 C 362.27 1173.90 368.74 1171.34 375.37 1169.41 Z" />
<path fill="#d4861a" stroke="#d4861a" stroke-width="0.09375" opacity="1.00" d=" M 1242.24 1186.74 C 1238.00 1179.06 1245.65 1169.10 1254.00 1169.70 C 1265.64 1168.68 1275.74 1175.30 1285.68 1180.27 C 1298.48 1186.75 1309.79 1195.73 1322.44 1202.50 C 1328.71 1206.00 1335.59 1208.19 1342.30 1210.72 C 1353.80 1215.14 1367.11 1213.45 1377.80 1220.25 C 1382.67 1223.66 1387.65 1226.93 1392.32 1230.63 C 1398.10 1233.82 1404.24 1237.04 1410.99 1237.35 C 1417.49 1236.30 1423.30 1232.86 1429.78 1231.65 C 1440.38 1228.10 1451.54 1224.36 1462.88 1226.20 C 1466.91 1227.10 1471.28 1228.84 1473.27 1232.76 C 1477.70 1239.88 1475.76 1248.68 1474.47 1256.43 C 1472.53 1264.93 1470.14 1274.31 1463.00 1279.99 C 1457.84 1284.16 1450.68 1283.70 1444.59 1282.34 C 1438.66 1280.44 1432.99 1277.65 1427.83 1274.16 C 1420.68 1268.69 1413.02 1263.78 1406.75 1257.26 C 1402.09 1252.90 1398.10 1247.64 1392.35 1244.64 C 1386.19 1241.13 1379.07 1239.45 1372.00 1239.93 C 1360.13 1239.80 1349.02 1244.42 1337.90 1247.96 C 1327.10 1251.79 1316.39 1256.36 1304.96 1257.98 C 1293.22 1259.00 1281.43 1257.39 1269.90 1255.24 C 1260.99 1254.03 1252.31 1251.60 1243.62 1249.38 C 1232.29 1245.62 1220.41 1243.10 1209.97 1237.12 C 1208.49 1236.20 1206.66 1234.96 1206.71 1233.04 C 1211.23 1228.74 1218.16 1228.81 1224.03 1228.68 C 1226.21 1228.40 1228.92 1229.38 1230.71 1227.74 C 1230.71 1225.69 1228.26 1225.18 1226.92 1224.18 C 1224.65 1222.66 1221.41 1221.90 1220.25 1219.23 C 1230.87 1210.98 1244.03 1207.20 1255.59 1200.58 C 1257.36 1199.80 1258.90 1197.42 1257.23 1195.79 C 1252.48 1192.42 1245.43 1192.15 1242.24 1186.74 Z" />
</g>
<g id="#cddbd8ff">
<path fill="#cddbd8" stroke="#cddbd8" stroke-width="0.09375" opacity="1.00" d=" M 1024.92 629.22 C 1030.00 628.97 1035.11 628.89 1040.19 629.35 C 1035.56 631.11 1030.24 630.30 1025.40 629.88 L 1024.92 629.22 Z" />
</g>
<g id="#74778eff">
<path fill="#74778e" stroke="#74778e" stroke-width="0.09375" opacity="1.00" d=" M 353.18 717.02 C 353.54 708.94 354.54 700.78 356.95 693.04 C 357.06 694.33 357.19 695.63 357.34 696.94 C 354.96 707.78 354.34 718.93 354.50 730.01 C 354.62 740.00 354.03 750.06 355.44 760.00 C 356.52 769.00 357.26 778.14 360.04 786.82 C 360.02 788.60 359.94 790.38 359.91 792.18 C 356.70 782.18 355.59 771.69 353.82 761.38 C 352.66 746.64 351.45 731.77 353.18 717.02 Z" />
</g>
<g id="#a7761dff">
<path fill="#a7761d" stroke="#a7761d" stroke-width="0.09375" opacity="1.00" d=" M 655.05 740.02 C 657.97 731.75 659.52 723.09 662.18 714.75 C 662.36 720.12 660.63 725.25 659.23 730.36 C 656.09 741.90 651.67 753.02 647.00 764.00 C 633.07 793.71 614.35 821.05 592.42 845.42 C 586.87 851.49 581.76 858.03 575.47 863.39 C 569.74 868.33 564.26 873.56 558.57 878.55 C 537.32 896.42 514.25 912.38 488.86 923.79 C 482.28 927.03 475.12 928.89 468.58 932.23 C 467.38 931.54 466.18 930.86 465.00 930.16 C 470.09 930.37 474.78 928.21 479.42 926.42 C 509.79 914.03 537.38 895.51 561.87 873.80 C 562.94 873.04 563.15 871.74 563.31 870.55 C 567.68 868.22 571.87 865.36 574.45 861.01 C 579.83 857.65 584.15 853.02 588.16 848.18 C 616.88 816.73 641.22 780.52 655.05 740.02 Z" />
</g>
<g id="#d2861eff">
<path fill="#d2861e" stroke="#d2861e" stroke-width="0.09375" opacity="1.00" d=" M 1173.41 785.38 C 1174.50 783.18 1176.17 778.59 1179.34 780.59 C 1181.11 783.56 1179.99 787.25 1179.45 790.44 C 1178.03 796.39 1175.66 802.04 1173.80 807.85 C 1172.99 810.38 1171.54 812.97 1168.95 814.01 C 1168.47 804.33 1170.24 794.51 1173.41 785.38 Z" />
</g>
<g id="#827687ff">
<path fill="#827687" stroke="#827687" stroke-width="0.09375" opacity="1.00" d=" M 360.04 786.82 C 362.02 792.26 363.09 797.96 364.67 803.51 C 370.16 820.78 377.93 837.28 387.19 852.83 C 388.20 854.37 389.48 855.72 390.74 857.08 C 390.29 857.77 389.84 858.47 389.40 859.18 C 387.06 855.01 384.55 850.94 382.20 846.79 C 372.45 829.66 364.88 811.26 359.91 792.18 C 359.94 790.38 360.02 788.60 360.04 786.82 Z" />
</g>
<g id="#fe1b01ff">
<path fill="#fe1b01" stroke="#fe1b01" stroke-width="0.09375" opacity="1.00" d=" M 518.08 876.90 C 533.10 874.34 548.70 875.46 563.31 870.55 C 563.15 871.74 562.94 873.04 561.87 873.80 C 537.38 895.51 509.79 914.03 479.42 926.42 C 474.78 928.21 470.09 930.37 465.00 930.16 C 459.22 926.79 453.71 922.98 447.94 919.60 C 461.32 910.07 474.61 900.43 488.20 891.22 C 497.54 885.37 506.86 878.42 518.08 876.90 Z" />
</g>
<g id="#dcd649ff">
<path fill="#dcd649" stroke="#dcd649" stroke-width="0.09375" opacity="1.00" d=" M 852.76 960.58 C 860.71 959.19 868.27 956.19 876.22 954.87 C 867.71 959.30 857.99 960.57 848.74 962.74 C 822.44 967.14 796.23 972.12 769.80 975.68 C 762.49 976.71 755.14 977.36 747.88 978.66 L 747.08 978.77 C 736.49 979.28 725.92 980.39 715.31 980.44 C 702.12 980.25 688.93 980.21 675.74 980.42 C 670.92 980.35 666.10 980.14 661.28 980.10 C 656.77 979.86 652.26 979.70 647.76 979.37 C 640.37 978.57 632.97 977.71 625.55 977.25 C 627.05 975.91 629.34 976.70 631.18 976.54 C 637.71 977.57 644.42 976.73 650.89 978.30 C 657.16 979.92 663.64 978.89 670.02 979.13 C 680.34 979.46 690.67 979.31 700.99 979.34 C 712.35 979.17 723.78 979.84 735.06 978.19 C 741.82 977.17 748.71 977.69 755.43 976.31 C 788.04 972.26 820.40 966.31 852.76 960.58 Z" />
</g>
<g id="#52605eff">
<path fill="#52605e" stroke="#52605e" stroke-width="0.09375" opacity="1.00" d=" M 876.22 954.87 L 877.08 954.70 C 878.24 955.03 879.68 955.24 880.13 956.59 C 875.99 956.24 872.22 958.17 868.35 959.28 C 849.48 964.83 829.86 966.86 810.60 970.57 C 798.03 972.76 785.43 974.75 772.80 976.56 C 764.47 977.18 756.30 979.61 747.88 978.66 C 755.14 977.36 762.49 976.71 769.80 975.68 C 796.23 972.12 822.44 967.14 848.74 962.74 C 857.99 960.57 867.71 959.30 876.22 954.87 Z" />
</g>
<g id="#2a47abff">
<path fill="#2a47ab" stroke="#2a47ab" stroke-width="0.09375" opacity="1.00" d=" M 868.35 959.28 C 872.22 958.17 875.99 956.24 880.13 956.59 C 886.39 973.47 892.50 990.40 898.79 1007.27 C 906.25 1026.24 914.09 1045.32 925.77 1062.15 C 930.09 1069.01 934.59 1075.87 940.55 1081.45 C 941.91 1082.36 942.17 1084.67 940.44 1085.36 C 933.98 1089.54 927.51 1093.74 920.82 1097.54 C 890.64 1114.08 859.41 1129.70 825.75 1137.70 C 814.09 1139.57 801.37 1142.00 790.21 1136.81 C 786.12 1135.15 783.01 1131.76 781.19 1127.82 C 777.42 1119.57 772.65 1111.84 767.91 1104.13 C 758.13 1088.89 748.67 1073.42 738.35 1058.55 C 736.37 1057.57 735.09 1059.74 734.32 1061.19 C 724.26 1079.45 721.28 1100.40 716.78 1120.47 C 715.26 1129.72 713.73 1139.14 709.82 1147.74 C 706.83 1154.36 700.09 1158.32 693.42 1160.43 C 687.42 1162.43 681.05 1162.35 674.82 1162.84 C 656.33 1163.22 638.10 1159.64 620.09 1155.85 C 616.54 1155.05 612.82 1154.58 609.66 1152.68 C 635.18 1099.49 650.56 1042.04 661.06 984.16 C 661.41 983.17 661.83 982.22 662.32 981.31 C 669.87 980.79 677.41 982.33 684.99 982.23 C 698.99 982.56 713.01 982.41 726.96 981.05 C 733.64 980.26 740.84 981.88 747.08 978.77 L 747.88 978.66 C 756.30 979.61 764.47 977.18 772.80 976.56 C 785.43 974.75 798.03 972.76 810.60 970.57 C 829.86 966.86 849.48 964.83 868.35 959.28 Z" />
</g>
<g id="#2a48abff">
<path fill="#2a48ab" stroke="#2a48ab" stroke-width="0.09375" opacity="1.00" d=" M 584.60 968.49 C 585.19 968.27 586.37 967.83 586.96 967.61 C 594.66 971.05 603.08 972.35 611.25 974.23 C 611.46 979.36 610.04 984.34 609.19 989.37 C 599.41 1041.94 584.91 1093.89 562.47 1142.55 C 559.46 1142.06 556.28 1141.21 554.32 1138.69 C 548.29 1131.61 547.90 1121.84 548.29 1113.00 C 547.90 1103.80 550.27 1094.86 551.74 1085.86 C 553.06 1078.15 555.01 1070.57 556.89 1062.99 C 564.99 1031.17 575.07 999.88 584.60 968.49 Z" />
</g>
<g id="#2b48abff">
<path fill="#2b48ab" stroke="#2b48ab" stroke-width="0.09375" opacity="1.00" d=" M 576.53 1145.30 C 600.78 1091.96 615.65 1034.85 625.55 977.25 C 632.97 977.71 640.37 978.57 647.76 979.37 C 640.15 1021.18 630.35 1062.72 615.59 1102.64 C 609.74 1118.73 602.86 1134.40 595.73 1149.95 C 589.27 1148.68 582.88 1147.04 576.53 1145.30 Z" />
</g>
<g id="#fdfefeff">
<path fill="#fdfefe" stroke="#fdfefe" stroke-width="0.09375" opacity="1.00" d=" M 647.76 979.37 C 652.26 979.70 656.77 979.86 661.28 980.10 C 661.23 981.44 661.16 982.80 661.06 984.16 C 650.56 1042.04 635.18 1099.49 609.66 1152.68 C 604.91 1152.34 600.34 1151.00 595.73 1149.95 C 602.86 1134.40 609.74 1118.73 615.59 1102.64 C 630.35 1062.72 640.15 1021.18 647.76 979.37 Z" />
</g>
<g id="#4d5d62ff">
<path fill="#4d5d62" stroke="#4d5d62" stroke-width="0.09375" opacity="1.00" d=" M 715.31 980.44 C 725.92 980.39 736.49 979.28 747.08 978.77 C 740.84 981.88 733.64 980.26 726.96 981.05 C 713.01 982.41 698.99 982.56 684.99 982.23 C 677.41 982.33 669.87 980.79 662.32 981.31 C 661.83 982.22 661.41 983.17 661.06 984.16 C 661.16 982.80 661.23 981.44 661.28 980.10 C 666.10 980.14 670.92 980.35 675.74 980.42 C 688.91 981.04 702.15 981.44 715.31 980.44 Z" />
</g>
<g id="#b4b96dff">
<path fill="#b4b96d" stroke="#b4b96d" stroke-width="0.09375" opacity="1.00" d=" M 675.74 980.42 C 688.93 980.21 702.12 980.25 715.31 980.44 C 702.15 981.44 688.91 981.04 675.74 980.42 Z" />
</g>
</svg>
